<svg width="16" height="13" viewBox="0 0 16 13" fill="none" xmlns="http://www.w3.org/2000/svg">
<path d="M0.72728 5.3427H13.5172L9.66773 1.30993C9.59827 1.23965 9.54286 1.15558 9.50475 1.06262C9.46663 0.969667 9.44657 0.869691 9.44573 0.768525C9.44489 0.66736 9.46329 0.567033 9.49986 0.473397C9.53643 0.379762 9.59043 0.294694 9.65872 0.223157C9.727 0.151619 9.8082 0.0950455 9.89758 0.0567362C9.98696 0.018427 10.0827 -0.000850331 10.1793 2.87673e-05C10.2759 0.000907865 10.3713 0.021926 10.46 0.0618567C10.5488 0.101787 10.629 0.159831 10.6961 0.232601L15.7871 5.56593C15.9234 5.70881 16 5.90257 16 6.1046C16 6.30663 15.9234 6.50039 15.7871 6.64327L10.6961 11.9766C10.5589 12.1154 10.3752 12.1922 10.1845 12.1904C9.99384 12.1887 9.81143 12.1086 9.67659 11.9673C9.54175 11.8261 9.46526 11.635 9.4636 11.4352C9.46195 11.2354 9.53525 11.043 9.66773 10.8993L13.5172 6.86651H0.72728C0.534393 6.86651 0.349406 6.78623 0.213015 6.64335C0.0766239 6.50046 0 6.30667 0 6.1046C0 5.90253 0.0766239 5.70874 0.213015 5.56585C0.349406 5.42297 0.534393 5.3427 0.72728 5.3427Z" fill="#38472A"/>
</svg>
