<svg width="16" height="16" viewBox="0 0 16 16" fill="none" xmlns="http://www.w3.org/2000/svg">
<path d="M16 5.5V7C15.9988 7.39747 15.8404 7.77832 15.5594 8.05938C15.2783 8.34043 14.8975 8.49884 14.5 8.5H9.5C9.10253 8.49884 8.72168 8.34043 8.44062 8.05938C8.15957 7.77832 8.00116 7.39747 8 7V5.5H11.5C11.5 5.63261 11.5527 5.75979 11.6464 5.85355C11.7402 5.94732 11.8674 6 12 6C12.1326 6 12.2598 5.94732 12.3536 5.85355C12.4473 5.75979 12.5 5.63261 12.5 5.5H16Z" fill="#38472A"/>
<path d="M16 3.5V4.5H12.5C12.5 4.36739 12.4473 4.24021 12.3536 4.14645C12.2598 4.05268 12.1326 4 12 4C11.8674 4 11.7402 4.05268 11.6464 4.14645C11.5527 4.24021 11.5 4.36739 11.5 4.5H8V3.5C8.00116 3.10253 8.15957 2.72168 8.44062 2.44062C8.72168 2.15957 9.10253 2.00116 9.5 2H14.5C14.8975 2.00116 15.2783 2.15957 15.5594 2.44062C15.8404 2.72168 15.9988 3.10253 16 3.5Z" fill="#38472A"/>
<path d="M13.5 3H10.5C10.3674 3 10.2402 2.94732 10.1464 2.85355C10.0527 2.75979 10 2.63261 10 2.5V1.5C10.0004 1.10231 10.1586 0.721032 10.4398 0.439822C10.721 0.158612 11.1023 0.00043674 11.5 0L12.5 0C12.8977 0.00043674 13.279 0.158612 13.5602 0.439822C13.8414 0.721032 13.9996 1.10231 14 1.5V2.5C14 2.63261 13.9473 2.75979 13.8536 2.85355C13.7598 2.94732 13.6326 3 13.5 3ZM11 2H13V1.5C12.9998 1.36744 12.9471 1.24037 12.8534 1.14664C12.7596 1.05291 12.6326 1.00017 12.5 1H11.5C11.3674 1.00017 11.2404 1.05291 11.1466 1.14664C11.0529 1.24037 11.0002 1.36744 11 1.5V2Z" fill="#38472A"/>
<path d="M8 11V12H4.5C4.5 11.8674 4.44732 11.7402 4.35355 11.6464C4.25979 11.5527 4.13261 11.5 4 11.5C3.86739 11.5 3.74021 11.5527 3.64645 11.6464C3.55268 11.7402 3.5 11.8674 3.5 12H0V11C0.00116081 10.6025 0.159569 10.2217 0.440622 9.94062C0.721676 9.65957 1.10253 9.50116 1.5 9.5H6.5C6.89747 9.50116 7.27832 9.65957 7.55938 9.94062C7.84043 10.2217 7.99884 10.6025 8 11Z" fill="#38472A"/>
<path d="M4.5 13H8V14.5C7.99884 14.8975 7.84043 15.2783 7.55938 15.5594C7.27832 15.8404 6.89747 15.9988 6.5 16H1.5C1.10253 15.9988 0.721676 15.8404 0.440622 15.5594C0.159569 15.2783 0.00116081 14.8975 0 14.5L0 13H3.5C3.5 13.1326 3.55268 13.2598 3.64645 13.3536C3.74021 13.4473 3.86739 13.5 4 13.5C4.13261 13.5 4.25979 13.4473 4.35355 13.3536C4.44732 13.2598 4.5 13.1326 4.5 13Z" fill="#38472A"/>
<path d="M5.5 10.5H2.5C2.36739 10.5 2.24021 10.4473 2.14645 10.3536C2.05268 10.2598 2 10.1326 2 10V9C2.00044 8.60231 2.15861 8.22103 2.43982 7.93982C2.72103 7.65861 3.10231 7.50044 3.5 7.5H4.5C4.89769 7.50044 5.27897 7.65861 5.56018 7.93982C5.84139 8.22103 5.99956 8.60231 6 9V10C6 10.1326 5.94732 10.2598 5.85355 10.3536C5.75979 10.4473 5.63261 10.5 5.5 10.5ZM3 9.5H5V9C4.99983 8.86744 4.94709 8.74037 4.85336 8.64664C4.75963 8.55291 4.63256 8.50017 4.5 8.5H3.5C3.36744 8.50017 3.24037 8.55291 3.14664 8.64664C3.05291 8.74037 3.00017 8.86744 3 9V9.5Z" fill="#38472A"/>
<path d="M4 5.99095C3.86739 5.99095 3.74021 5.93827 3.64645 5.8445C3.55268 5.75074 3.5 5.62356 3.5 5.49095V4C3.50044 3.60231 3.65861 3.22103 3.93982 2.93982C4.22103 2.65861 4.60231 2.50044 5 2.5H6.5C6.63261 2.5 6.75979 2.55268 6.85355 2.64645C6.94732 2.74021 7 2.86739 7 3C7 3.13261 6.94732 3.25979 6.85355 3.35355C6.75979 3.44732 6.63261 3.5 6.5 3.5H5C4.86744 3.50017 4.74037 3.55291 4.64664 3.64664C4.55291 3.74037 4.50017 3.86744 4.5 4V5.49095C4.5 5.62356 4.44732 5.75074 4.35355 5.8445C4.25979 5.93827 4.13261 5.99095 4 5.99095Z" fill="#38472A"/>
<path d="M4.0068 6.5066C3.94113 6.50668 3.8761 6.49378 3.81543 6.46863C3.75477 6.44349 3.69967 6.40661 3.6533 6.3601L2.6467 5.3535C2.55562 5.2592 2.50523 5.1329 2.50637 5.0018C2.50751 4.8707 2.56009 4.7453 2.65279 4.65259C2.7455 4.55989 2.8709 4.50731 3.002 4.50617C3.1331 4.50503 3.2594 4.55542 3.3537 4.6465L4.0068 5.29955L4.6623 4.64455C4.70847 4.59696 4.76363 4.55903 4.82459 4.53296C4.88555 4.50688 4.95109 4.4932 5.01739 4.49269C5.08368 4.49218 5.14942 4.50487 5.21077 4.53001C5.27212 4.55514 5.32786 4.59223 5.37475 4.63911C5.42163 4.68599 5.45872 4.74173 5.48386 4.80308C5.509 4.86442 5.52169 4.93016 5.52119 4.99646C5.52069 5.06276 5.50701 5.1283 5.48094 5.18926C5.45487 5.25022 5.41694 5.30539 5.36935 5.35155L4.3602 6.36C4.31386 6.40651 4.25878 6.4434 4.19813 6.46856C4.13748 6.49372 4.07246 6.50665 4.0068 6.5066Z" fill="#38472A"/>
<path d="M11 13.5H9.5C9.36739 13.5 9.24021 13.4473 9.14645 13.3536C9.05268 13.2598 9 13.1326 9 13C9 12.8674 9.05268 12.7402 9.14645 12.6465C9.24021 12.5527 9.36739 12.5 9.5 12.5H11C11.1326 12.4998 11.2596 12.4471 11.3534 12.3534C11.4471 12.2596 11.4998 12.1326 11.5 12V10.5091C11.5 10.3765 11.5527 10.2493 11.6464 10.1555C11.7402 10.0617 11.8674 10.0091 12 10.0091C12.1326 10.0091 12.2598 10.0617 12.3536 10.1555C12.4473 10.2493 12.5 10.3765 12.5 10.5091V12C12.4996 12.3977 12.3414 12.779 12.0602 13.0602C11.779 13.3414 11.3977 13.4996 11 13.5Z" fill="#38472A"/>
<path d="M10.9843 11.5022C10.8854 11.5022 10.7888 11.4729 10.7066 11.4179C10.6244 11.363 10.5603 11.2849 10.5224 11.1936C10.4846 11.1022 10.4747 11.0017 10.494 10.9047C10.5133 10.8077 10.5609 10.7186 10.6308 10.6487L11.6399 9.64002C11.7337 9.54628 11.8608 9.49362 11.9934 9.49362C12.126 9.49362 12.2532 9.54628 12.3469 9.64002L13.3534 10.6465C13.4445 10.7408 13.4949 10.8671 13.4938 10.9982C13.4926 11.1293 13.44 11.2547 13.3473 11.3474C13.2546 11.4401 13.1292 11.4927 12.9981 11.4939C12.867 11.495 12.7407 11.4446 12.6464 11.3535L11.9933 10.7005L11.3378 11.3557C11.2915 11.4022 11.2364 11.4391 11.1757 11.4642C11.115 11.4894 11.05 11.5023 10.9843 11.5022Z" fill="#38472A"/>
</svg>
