<svg xmlns="http://www.w3.org/2000/svg" width="14" height="14" viewBox="0 0 14 14" fill="none">
  <g clip-path="url(#clip0_6480_3399)">
    <mask id="mask0_6480_3399" style="mask-type:luminance" maskUnits="userSpaceOnUse" x="0" y="0" width="14" height="14">
      <path d="M14 0H0V14H14V0Z" fill="white"/>
    </mask>
    <g mask="url(#mask0_6480_3399)">
      <path fill-rule="evenodd" clip-rule="evenodd" d="M7.50001 0H6.5V4.42772L4.84135 0.322407L3.91416 0.697015L5.61579 4.90867L2.40381 1.6967L1.6967 2.40381L4.77524 5.48234L0.785687 3.73927L0.385321 4.65562L4.60674 6.5H0V7.50001H4.60673L0.385323 9.34437L0.785687 10.2607L4.77523 8.51767L1.6967 11.5962L2.40381 12.3033L5.61579 9.09132L3.91416 13.303L4.84135 13.6776L6.5 9.57229V14H7.50001V9.57229L9.15866 13.6776L10.0858 13.303L8.38425 9.09132L11.5962 12.3033L12.3033 11.5962L9.22474 8.51767L13.2143 10.2607L13.6146 9.34437L9.3933 7.50001H14V6.5H9.39323L13.6146 4.65562L13.2143 3.73927L9.22474 5.48234L12.3033 2.4038L11.5962 1.6967L8.38425 4.90867L10.0858 0.697015L9.15866 0.322407L7.50001 4.42772V0Z" fill="white"/>
    </g>
  </g>
  <defs>
    <clipPath id="clip0_6480_3399">
      <rect width="14" height="14" fill="white"/>
    </clipPath>
  </defs>
</svg>