<svg width="16" height="16" viewBox="0 0 16 16" fill="none" xmlns="http://www.w3.org/2000/svg">
<path d="M13.4667 1.44262H12.9333V0.655738C12.9333 0.262295 12.6667 0 12.2667 0C11.8667 0 11.6 0.262295 11.6 0.655738V1.44262H10.0667V0.655738C10.0667 0.262295 9.8 0 9.4 0C9 0 8.73333 0.262295 8.73333 0.655738V1.44262H7.2V0.655738C7.2 0.262295 6.93333 0 6.53333 0C6.13333 0 5.86667 0.262295 5.86667 0.655738V1.44262H4.4V0.655738C4.4 0.262295 4.13333 0 3.73333 0C3.33333 0 3.06667 0.262295 3.06667 0.655738V1.44262H2.53333C1.13333 1.44262 0 2.55738 0 3.93443V13.5082C0 14.8852 1.13333 16 2.53333 16H13.4667C14.8667 16 16 14.8852 16 13.5082V3.93443C16 3.40984 15.8667 2.95082 15.5333 2.55738C15.1333 1.83607 14.3333 1.44262 13.4667 1.44262ZM14.6667 13.5082C14.6667 14.1639 14.1333 14.6885 13.4667 14.6885H2.53333C1.86667 14.6885 1.33333 14.1639 1.33333 13.5082V5.90164H14.6667V13.5082Z" fill="#38472A"/>
<path d="M3.26644 9.70469H4.99977C5.19977 9.70469 5.39977 9.50797 5.39977 9.31125V7.60633C5.39977 7.40961 5.19977 7.21289 4.99977 7.21289H3.26644C3.06644 7.21289 2.86644 7.40961 2.86644 7.60633V9.31125C2.79977 9.50797 2.99977 9.70469 3.26644 9.70469Z" fill="#38472A"/>
<path d="M7.13437 9.70469H8.86771C9.06771 9.70469 9.26771 9.50797 9.26771 9.31125V7.60633C9.26771 7.40961 9.06771 7.21289 8.86771 7.21289H7.13437C6.93437 7.21289 6.73438 7.40961 6.73438 7.60633V9.31125C6.73438 9.50797 6.93437 9.70469 7.13437 9.70469Z" fill="#38472A"/>
<path d="M10.9996 9.70469H12.7329C12.9329 9.70469 13.1329 9.50797 13.1329 9.31125V7.60633C13.1329 7.40961 12.9329 7.21289 12.7329 7.21289H10.9996C10.7996 7.21289 10.5996 7.40961 10.5996 7.60633V9.31125C10.5996 9.50797 10.7996 9.70469 10.9996 9.70469Z" fill="#38472A"/>
<path d="M3.26644 13.5738H4.99977C5.19977 13.5738 5.39977 13.3771 5.39977 13.1804V11.4755C5.39977 11.2788 5.19977 11.082 4.99977 11.082H3.26644C3.06644 11.082 2.86644 11.2788 2.86644 11.4755V13.1804C2.79977 13.3771 2.99977 13.5738 3.26644 13.5738Z" fill="#38472A"/>
<path d="M7.13437 13.5738H8.86771C9.06771 13.5738 9.26771 13.3771 9.26771 13.1804V11.4755C9.26771 11.2788 9.06771 11.082 8.86771 11.082H7.13437C6.93437 11.082 6.73438 11.2788 6.73438 11.4755V13.1804C6.73438 13.3771 6.93437 13.5738 7.13437 13.5738Z" fill="#38472A"/>
<path d="M10.9996 13.5738H12.7329C12.9329 13.5738 13.1329 13.3771 13.1329 13.1804V11.4755C13.1329 11.2788 12.9329 11.082 12.7329 11.082H10.9996C10.7996 11.082 10.5996 11.2788 10.5996 11.4755V13.1804C10.5996 13.3771 10.7996 13.5738 10.9996 13.5738Z" fill="#38472A"/>
</svg>
