<svg xmlns="http://www.w3.org/2000/svg" width="17" height="17" viewBox="0 0 17 17" fill="none">
  <path d="M8.28529 5.67167H2.36091C2.11752 5.6717 1.87737 5.72876 1.6588 5.83848C1.44024 5.94821 1.24906 6.10769 1.09988 6.30474C0.950705 6.50178 0.847477 6.73117 0.798095 6.97537C0.748712 7.21956 0.754482 7.4721 0.814963 7.71366L2.45189 14.2559C2.53999 14.6078 2.73992 14.9196 3.02013 15.1421C3.30034 15.3647 3.64489 15.4853 3.99943 15.485H12.5712C12.9254 15.4849 13.2696 15.3641 13.5495 15.1416C13.8294 14.9191 14.0291 14.6075 14.1171 14.2559L15.7548 7.71366C15.8153 7.4721 15.8211 7.21956 15.7717 6.97537C15.7223 6.73117 15.6191 6.50178 15.4699 6.30474C15.3207 6.10769 15.1295 5.94821 14.911 5.83848C14.6924 5.72876 14.4523 5.6717 14.2089 5.67167H8.28529ZM8.28529 5.67167V0.764999" stroke="#28422E" strokeWidth="1.53" stroke-linecap="round" stroke-linejoin="round"/>
</svg>