<svg width="64" height="64" viewBox="0 0 64 64" fill="none" xmlns="http://www.w3.org/2000/svg">
<rect width="64" height="64" rx="6" fill="#D9EBE2"/>
<path d="M27.125 25.625C27.125 22.9326 29.3076 20.75 32 20.75C34.6924 20.75 36.875 22.9326 36.875 25.625C36.875 26.0392 36.5392 26.375 36.125 26.375C35.7108 26.375 35.375 26.0392 35.375 25.625C35.375 23.761 33.864 22.25 32 22.25C30.136 22.25 28.625 23.761 28.625 25.625C28.625 26.0392 28.2892 26.375 27.875 26.375C27.4608 26.375 27.125 26.0392 27.125 25.625Z" fill="#38472A"/>
<path fill-rule="evenodd" clip-rule="evenodd" d="M23.0779 30.032C23.3083 28.5735 24.5663 27.5 26.0429 27.5H37.957C39.4336 27.5 40.6915 28.5735 40.922 30.032L42.4627 39.782C42.7505 41.6036 41.3416 43.25 39.4976 43.25H24.5022C22.6583 43.25 21.2493 41.6036 21.5372 39.782L23.0779 30.032ZM26.0429 29C25.3034 29 24.6746 29.5375 24.5595 30.2661L23.0188 40.0161C22.875 40.9259 23.5787 41.75 24.5022 41.75H39.4976C40.4211 41.75 41.1248 40.9259 40.9811 40.0161L39.4404 30.2661C39.3252 29.5375 38.6964 29 37.957 29H26.0429Z" fill="#38472A"/>
<path d="M34.4697 35.2197C34.7626 34.9268 35.2375 34.9268 35.5303 35.2197C35.8232 35.5125 35.8232 35.9875 35.5303 36.2803L32.5303 39.2803C32.3897 39.421 32.1989 39.5 32 39.5C31.8011 39.5 31.6103 39.421 31.4697 39.2803L28.4697 36.2803C28.1768 35.9875 28.1768 35.5125 28.4697 35.2197C28.7626 34.9268 29.2375 34.9268 29.5303 35.2197L31.25 36.9394V32C31.25 31.5858 31.5858 31.25 32 31.25C32.4142 31.25 32.75 31.5858 32.75 32V36.9394L34.4697 35.2197Z" fill="#38472A"/>
</svg>
