<svg width="64" height="64" viewBox="0 0 64 64" fill="none" xmlns="http://www.w3.org/2000/svg">
<rect width="64" height="64" rx="6" fill="#D9EBE2"/>
<g clip-path="url(#clip0_6480_3488)">
<path d="M43.8568 28.8645C44.0646 28.6026 44.0431 28.2006 43.813 27.9593L38.1403 21.8647C38.0073 21.7218 37.8209 21.6406 37.6256 21.6406H26.8428C26.6572 21.6406 26.4792 21.714 26.3475 21.8447L20.2059 27.9393C19.9476 28.1876 19.9299 28.6264 20.1666 28.8953L31.4652 42.1157C31.7299 42.4406 32.2696 42.4405 32.5344 42.1157L43.8329 28.8952C43.841 28.8851 43.849 28.8749 43.8568 28.8645ZM35.298 27.7352H28.7016L31.9997 23.49L35.298 27.7352ZM35.736 29.1416L31.9998 39.5733L28.2636 29.1416H35.736ZM26.7696 29.1416L30.0466 38.291L22.2273 29.1416H26.7696ZM37.2299 29.1416H41.7722L33.953 38.291L37.2299 29.1416ZM41.683 27.7352H37.079L33.4366 23.0471H37.3194L41.683 27.7352ZM27.1325 23.0471H30.5629L26.9205 27.7352H22.4082L27.1325 23.0471Z" fill="#38472A"/>
</g>
<defs>
<clipPath id="clip0_6480_3488">
<rect width="24" height="24" fill="white" transform="translate(20 20)"/>
</clipPath>
</defs>
</svg>
