<svg width="64" height="64" viewBox="0 0 64 64" fill="none" xmlns="http://www.w3.org/2000/svg">
<rect width="64" height="64" rx="6" fill="#D9EBE2"/>
<g clip-path="url(#clip0_6480_3470)">
<path d="M31.0498 26.1499H31.0998V26.3499V26.5499H31.0498C30.6498 26.5499 30.2998 26.8999 30.2998 27.2999C30.2998 27.6999 30.6498 28.0499 31.0498 28.0499H31.4498C31.9998 29.2499 33.0998 30.0999 34.3498 30.0999C35.0498 30.0999 35.6998 29.8499 36.2998 29.3499C36.5998 29.0999 36.6498 28.5999 36.3998 28.2999C36.1498 27.9999 35.6498 27.9499 35.3498 28.1999C35.0498 28.4499 34.7498 28.5999 34.3998 28.5999C33.9498 28.5999 33.5498 28.3999 33.2498 28.0499H33.7998C34.1998 28.0499 34.5498 27.6999 34.5498 27.2999C34.5498 26.8999 34.1998 26.5499 33.7998 26.5499H32.6498C32.6498 26.4999 32.6498 26.3999 32.6498 26.3499C32.6498 26.2999 32.6498 26.1999 32.6498 26.1499H33.7998C34.1998 26.1499 34.5498 25.7999 34.5498 25.3999C34.5498 24.9999 34.1998 24.6499 33.7998 24.6499H33.2498C33.5498 24.2999 33.9498 24.0999 34.3998 24.0999C34.7498 24.0999 35.0998 24.2499 35.3498 24.4999C35.6498 24.7499 36.1498 24.7499 36.3998 24.3999C36.6498 24.0999 36.6498 23.5999 36.2998 23.3499C35.7498 22.8499 35.0498 22.5999 34.3498 22.5999C33.0998 22.5999 31.9998 23.4499 31.4498 24.6499H31.0498C30.6498 24.6499 30.2998 24.9999 30.2998 25.3999C30.2998 25.7999 30.5998 26.1499 31.0498 26.1499Z" fill="#38472A"/>
<path d="M43.7499 23.8499C43.7499 23.7999 43.7499 23.7999 43.7499 23.7499V23.6999V23.6499C43.7499 23.6499 43.7499 23.5999 43.6999 23.5999C43.6999 23.5999 43.6999 23.5499 43.6499 23.5499L43.5999 23.4999L43.5499 23.4499L43.4999 23.3999L43.4499 23.3499L43.3999 23.2999C43.3999 23.2999 43.3499 23.2999 43.3499 23.2499C43.2999 23.2499 43.2999 23.2499 43.2499 23.1999H43.1999C43.1499 23.1999 43.1499 23.1999 43.0999 23.1999H43.0499H39.1499C38.0999 21.4499 36.1499 20.2499 33.9499 20.2499C31.7499 20.2499 29.8499 21.3999 28.7499 23.1999H25.3999L25.1499 22.2499C25.0999 21.9999 24.9499 21.8499 24.6999 21.7499L21.2999 20.2999C20.8999 20.1499 20.4999 20.3499 20.2999 20.6999C20.1499 21.0999 20.3499 21.4999 20.6999 21.6999L23.7499 22.9499L26.5499 34.0499L24.9999 35.5999L24.9499 35.6499C24.4999 36.1999 24.4499 36.8999 24.7499 37.5499C25.0499 38.1499 25.6499 38.5499 26.3499 38.5499H39.9499C40.3499 38.5499 40.6999 38.1999 40.6999 37.7999C40.6999 37.3999 40.3499 37.0499 39.9499 37.0499H26.3499C26.1999 37.0499 26.0999 36.9499 26.0999 36.8999C26.0499 36.8499 26.0499 36.7499 26.0999 36.5999L27.6999 34.9999H40.4999C40.8499 34.9999 41.1499 34.7499 41.2499 34.4499L43.7499 24.0999C43.7499 24.0999 43.7499 24.0499 43.7499 23.9999C43.7499 23.9499 43.7499 23.9499 43.7499 23.8999C43.7499 23.8499 43.7499 23.8999 43.7499 23.8499ZM33.8999 21.7499C36.4499 21.7499 38.4999 23.7999 38.4999 26.3499C38.4999 28.8999 36.4499 30.9499 33.8999 30.9499C31.3499 30.9499 29.2999 28.8999 29.2999 26.3499C29.2999 23.7999 31.3999 21.7499 33.8999 21.7499ZM39.8999 33.5499H27.9999L25.7999 24.6999H28.0499C27.8999 25.2499 27.7999 25.7999 27.7999 26.3499C27.7999 29.6999 30.5499 32.4499 33.8999 32.4499C37.2499 32.4499 39.9999 29.6999 39.9999 26.3499C39.9999 25.7499 39.8999 25.1999 39.7499 24.6999H42.0499L39.8999 33.5499Z" fill="#38472A"/>
<path d="M39.45 41.5C39.45 40.25 38.45 39.25 37.2 39.25C35.95 39.25 34.95 40.25 34.95 41.5C34.95 42.75 35.95 43.75 37.2 43.75C38.45 43.75 39.45 42.75 39.45 41.5ZM36.45 41.5C36.45 41.1 36.8 40.75 37.2 40.75C37.6 40.75 37.95 41.1 37.95 41.5C37.95 41.9 37.6 42.25 37.2 42.25C36.8 42.25 36.45 41.9 36.45 41.5Z" fill="#38472A"/>
<path d="M29.2998 43.75C30.5498 43.75 31.5498 42.75 31.5498 41.5C31.5498 40.25 30.5498 39.25 29.2998 39.25C28.0498 39.25 27.0498 40.25 27.0498 41.5C27.0498 42.75 28.0498 43.75 29.2998 43.75ZM29.2998 40.75C29.6998 40.75 30.0498 41.1 30.0498 41.5C30.0498 41.9 29.6998 42.25 29.2998 42.25C28.8998 42.25 28.5498 41.9 28.5498 41.5C28.5498 41.1 28.8998 40.75 29.2998 40.75Z" fill="#38472A"/>
</g>
<defs>
<clipPath id="clip0_6480_3470">
<rect width="24" height="24" fill="white" transform="translate(20 20)"/>
</clipPath>
</defs>
</svg>
