<svg width="64" height="64" viewBox="0 0 64 64" fill="none" xmlns="http://www.w3.org/2000/svg">
<rect width="64" height="64" rx="6" fill="#D9EBE2"/>
<path d="M41.586 31.5948V22.1586C41.5828 21.5871 41.3543 21.0399 40.9502 20.6358C40.5461 20.2317 39.9989 20.0032 39.4274 20H22.1586C21.5871 20.0032 21.0399 20.2317 20.6358 20.6358C20.2317 21.0399 20.0032 21.5871 20 22.1586V39.4274C20.0032 39.9989 20.2317 40.5461 20.6358 40.9502C21.0399 41.3543 21.5871 41.5828 22.1586 41.586H31.5948C32.2334 42.3148 33.0149 42.9048 33.8907 43.3193C34.7666 43.7339 35.7183 43.9643 36.6868 43.9962C37.6553 44.0281 38.62 43.8608 39.5212 43.5048C40.4225 43.1487 41.241 42.6115 41.9263 41.9263C42.6115 41.241 43.1487 40.4225 43.5048 39.5212C43.8608 38.62 44.0281 37.6553 43.9962 36.6868C43.9643 35.7183 43.7339 34.7666 43.3193 33.8907C42.9048 33.0149 42.3148 32.2334 41.586 31.5948ZM28.0177 21.8502H33.5684V27.0926C33.5684 27.1743 33.5359 27.2528 33.478 27.3106C33.4202 27.3684 33.3418 27.4009 33.26 27.4009H28.326C28.2443 27.4009 28.1658 27.3684 28.108 27.3106C28.0502 27.2528 28.0177 27.1743 28.0177 27.0926V21.8502ZM22.1586 39.7358C22.0768 39.7358 21.9984 39.7033 21.9406 39.6455C21.8827 39.5877 21.8502 39.5092 21.8502 39.4274V22.1586C21.8502 22.0768 21.8827 21.9984 21.9406 21.9406C21.9984 21.8827 22.0768 21.8502 22.1586 21.8502H26.1674V27.0926C26.1707 27.6641 26.3991 28.2112 26.8033 28.6153C27.2074 29.0195 27.7545 29.2479 28.326 29.2512H33.26C33.8315 29.2479 34.3787 29.0195 34.7828 28.6153C35.1869 28.2112 35.4154 27.6641 35.4186 27.0926V21.8502H39.4274C39.5092 21.8502 39.5877 21.8827 39.6455 21.9406C39.7033 21.9984 39.7358 22.0768 39.7358 22.1586V30.4353C38.8596 30.0572 37.9148 29.864 36.9605 29.8679C35.0804 29.8712 33.2783 30.6195 31.9489 31.9489C30.6195 33.2783 29.8712 35.0804 29.8679 36.9605C29.864 37.9148 30.0572 38.8596 30.4353 39.7358H22.1586ZM36.9605 42.2028C36.1504 42.2009 35.352 42.0104 34.6284 41.6464C33.9047 41.2825 33.2757 40.755 32.7913 40.1059C32.6441 39.8996 32.5082 39.6854 32.3842 39.4644L32.2979 39.3041C32.2053 39.1196 32.123 38.9302 32.0512 38.7367L31.9155 38.3296C31.9155 38.1816 31.8415 38.0459 31.8168 37.8979C31.7528 37.5895 31.7198 37.2754 31.7181 36.9605C31.7214 35.5711 32.2748 34.2396 33.2572 33.2572C34.2396 32.2748 35.5711 31.7214 36.9605 31.7181C37.2754 31.7198 37.5895 31.7528 37.8979 31.8168L38.3173 31.9155L38.7367 32.0512C38.928 32.1184 39.1136 32.2009 39.2918 32.2979L39.4644 32.3842C39.6854 32.5082 39.8996 32.6441 40.1059 32.7913C40.9835 33.4506 41.6314 34.3693 41.9579 35.4173C42.2844 36.4653 42.2728 37.5895 41.9249 38.6306C41.5769 39.6716 40.9103 40.5769 40.0193 41.218C39.1283 41.8591 38.0581 42.2036 36.9605 42.2028ZM38.1939 35.0732L36.3437 36.8864L35.727 36.3067C35.6507 36.1891 35.5488 36.0904 35.4288 36.018C35.3088 35.9455 35.1739 35.9013 35.0344 35.8887C34.8948 35.876 34.7542 35.8952 34.6231 35.9448C34.4921 35.9945 34.374 36.0732 34.2778 36.1752C34.1816 36.2771 34.1099 36.3996 34.068 36.5333C34.0261 36.667 34.0151 36.8085 34.0358 36.9471C34.0566 37.0857 34.1086 37.2178 34.1879 37.3333C34.2672 37.4489 34.3717 37.5449 34.4935 37.6142L35.727 38.8477C35.9004 39.0209 36.1356 39.1182 36.3807 39.1182C36.6259 39.1182 36.861 39.0209 37.0345 38.8477L39.5014 36.3807C39.6649 36.2053 39.7538 35.9734 39.7496 35.7337C39.7454 35.4941 39.6483 35.2654 39.4788 35.0959C39.3093 34.9264 39.0806 34.8293 38.8409 34.8251C38.6013 34.8208 38.3693 34.9098 38.1939 35.0732Z" fill="#38472A"/>
</svg>
