<svg width="28" height="16" viewBox="0 0 28 16" fill="none" xmlns="http://www.w3.org/2000/svg">
<path d="M7.72295 6.87329C4.49303 6.87329 1.67738 8.45517 0.184979 10.8002C0.0641596 10.9904 0 11.2112 0 11.4366C0 11.662 0.0641596 11.8827 0.184979 12.073C1.67738 14.418 4.49303 15.9999 7.72295 15.9999C10.9529 15.9999 13.7685 14.418 15.2609 12.073C15.3818 11.8827 15.4459 11.662 15.4459 11.4366C15.4459 11.2112 15.3818 10.9904 15.2609 10.8002C13.7685 8.45517 10.9529 6.87329 7.72295 6.87329ZM7.72295 15.0291C7.01242 15.0291 6.31784 14.8184 5.72705 14.4237C5.13626 14.0289 4.6758 13.4679 4.40388 12.8114C4.13197 12.155 4.06083 11.4326 4.19945 10.7357C4.33806 10.0389 4.68022 9.39873 5.18264 8.8963C5.68507 8.39388 6.3252 8.05172 7.02208 7.9131C7.71896 7.77448 8.4413 7.84562 9.09775 8.11753C9.7542 8.38944 10.3153 8.8499 10.71 9.44069C11.1048 10.0315 11.3155 10.7261 11.3155 11.4366C11.3155 11.9084 11.2226 12.3755 11.042 12.8114C10.8615 13.2473 10.5969 13.6433 10.2633 13.9769C9.92967 14.3105 9.53363 14.5751 9.09776 14.7557C8.6619 14.9362 8.19473 15.0291 7.72295 15.0291Z" fill="#38472A"/>
<path d="M8.94831 11.3185C8.69319 11.3185 8.44589 11.2304 8.24824 11.0691C8.05058 10.9077 7.91469 10.6831 7.86353 10.4332C7.81237 10.1833 7.84909 9.92332 7.96748 9.69733C8.08587 9.47133 8.27866 9.29316 8.51326 9.19291C8.00251 9.01191 7.4454 9.00996 6.9334 9.1874C6.42141 9.36484 5.98497 9.71111 5.69576 10.1694C5.40655 10.6276 5.28177 11.1706 5.3419 11.7091C5.40204 12.2476 5.64351 12.7497 6.02667 13.1328C6.40984 13.516 6.9119 13.7575 7.45043 13.8176C7.98895 13.8777 8.53192 13.753 8.99016 13.4638C9.4484 13.1745 9.79467 12.7381 9.97211 12.2261C10.1495 11.7141 10.1476 11.157 9.9666 10.6463C9.88136 10.8457 9.73942 11.0158 9.55839 11.1353C9.37736 11.2548 9.16523 11.3185 8.94831 11.3185Z" fill="#38472A"/>
<path d="M23.7938 2.47803e-07H20.8381C20.7878 0.000329995 20.7388 0.0154828 20.697 0.0435625C20.6553 0.0716422 20.6228 0.111402 20.6036 0.157867C20.5843 0.204333 20.5792 0.25544 20.5889 0.304795C20.5985 0.35415 20.6225 0.399562 20.6579 0.435348L21.6374 1.4149L17.9692 5.08312L14.8333 1.9455C14.6893 1.80252 14.4946 1.72229 14.2916 1.72229C14.0887 1.72229 13.894 1.80252 13.75 1.9455L9.87939 5.81609C10.4512 5.93238 11.0125 6.09504 11.5579 6.30246L14.2908 3.56958L17.4284 6.7055C17.4994 6.77666 17.5836 6.83312 17.6764 6.87164C17.7692 6.91016 17.8687 6.92999 17.9692 6.92999C18.0697 6.92999 18.1692 6.91016 18.262 6.87164C18.3548 6.83312 18.4391 6.77666 18.51 6.7055L22.719 2.49649L23.6135 3.39101C23.6618 3.43787 23.7265 3.4641 23.7938 3.46414C23.827 3.46469 23.8601 3.45832 23.8907 3.44543C23.9375 3.4261 23.9775 3.39332 24.0057 3.35124C24.0338 3.30916 24.0489 3.25967 24.0489 3.20905V0.255087C24.0489 0.221575 24.0424 0.188383 24.0296 0.157414C24.0168 0.126444 23.998 0.0983047 23.9743 0.0746085C23.9506 0.0509123 23.9224 0.0321248 23.8915 0.0193222C23.8605 0.00651959 23.8273 -4.64935e-05 23.7938 2.47803e-07Z" fill="#38472A"/>
<path d="M16.8501 8.06935V15.9993H19.202V7.99792C18.8566 8.23023 18.4525 8.3602 18.0364 8.37283C17.6203 8.38547 17.209 8.28027 16.8501 8.06935Z" fill="#38472A"/>
<path d="M21.1406 6.11878V15.9993H23.4926V4.88414C23.2112 4.83476 22.9471 4.71416 22.7256 4.53381L21.1406 6.11878Z" fill="#38472A"/>
<path d="M25.4307 0.042511H27.7831V16H25.4307V0.042511Z" fill="#38472A"/>
</svg>
