<svg xmlns="http://www.w3.org/2000/svg" width="25" height="24" viewBox="0 0 25 24" fill="none">
  <path fill-rule="evenodd" clip-rule="evenodd" d="M24.9387 16.1817L22.8112 10.0656C22.6118 9.49378 21.9817 9.18796 21.4047 9.38492L18.2689 10.4715L18.2688 10.4716C17.9909 10.5681 17.7669 10.767 17.6381 11.0318C17.509 11.2971 17.4912 11.596 17.5879 11.873L17.6747 12.1227C16.8136 12.4792 16.2102 12.6881 15.3667 12.2548C14.4165 11.7654 13.3802 11.8148 12.526 12.3576C11.6803 11.7933 10.644 11.7257 9.68581 12.1904C8.89071 12.5766 8.31605 12.406 7.54636 12.0747L7.65342 11.8128C7.88298 11.2503 7.61129 10.6056 7.04736 10.3756L3.97268 9.12464C3.4094 8.89514 2.7638 9.16617 2.53304 9.72912L0.0817114 15.7235C-0.1482 16.2868 0.123796 16.9317 0.687729 17.1607L3.7613 18.4118C3.89728 18.467 4.03806 18.4932 4.17664 18.4932C4.61276 18.4932 5.0271 18.2341 5.2021 17.8072L5.29739 17.5742L5.78983 17.7823C5.98392 17.8785 6.12605 18.0432 6.22265 18.2803L5.68582 19.1635C5.49068 19.4834 5.43296 19.8606 5.52319 20.2254C5.61363 20.591 5.84128 20.8989 6.16418 21.0921C6.35647 21.2072 6.56564 21.2706 6.77556 21.2873C6.76273 21.439 6.77451 21.5935 6.81238 21.7459C6.90317 22.1111 7.13037 22.4182 7.45222 22.6109C7.67862 22.7464 7.92847 22.8109 8.17547 22.8109C8.38404 22.8109 8.5905 22.7648 8.77903 22.6768C8.89727 22.8935 9.07122 23.0758 9.28851 23.2058C9.51456 23.3412 9.76416 23.4056 10.0112 23.4056C10.228 23.4056 10.4425 23.3554 10.6374 23.2604C10.7552 23.4653 10.9235 23.6379 11.1319 23.7626C11.358 23.8979 11.6076 23.9623 11.8546 23.9623C12.1963 23.9623 12.5324 23.8384 12.7938 23.609L13.1096 23.7991C13.3363 23.9352 13.5865 24 13.8337 24C14.3118 24 14.7789 23.7577 15.0433 23.3205C15.1458 23.1511 15.2076 22.9669 15.2312 22.7798C15.7817 22.8644 16.361 22.6167 16.6626 22.1186C16.7912 21.9054 16.8563 21.6714 16.8633 21.4387C17.3222 21.4207 17.7637 21.1805 18.0172 20.7604C18.1965 20.464 18.2586 20.1189 18.1956 19.7801C18.513 19.6809 18.797 19.4703 18.982 19.1642C19.2122 18.7815 19.2397 18.3357 19.0942 17.9466L19.6272 17.7374L19.7153 17.9908C19.8738 18.4452 20.3028 18.7309 20.7605 18.7309C20.8803 18.7309 21.0021 18.7113 21.1216 18.67L24.2577 17.5847C24.5356 17.4882 24.7597 17.2889 24.8885 17.0234C25.0174 16.7579 25.0351 16.4589 24.9385 16.1818L24.9387 16.1817ZM4.12048 17.5328L1.0469 16.2817C0.969846 16.2505 0.931469 16.1587 0.962882 16.0817L3.41396 10.088C3.4381 10.0291 3.49707 9.99261 3.55764 9.99261C3.57628 9.99261 3.59507 9.99606 3.61301 10.0034L4.71091 10.4501L3.51306 13.3777L3.5128 13.3776L3.42618 13.5901C3.32723 13.8328 3.44417 14.1096 3.68741 14.2084C3.74617 14.2323 3.80695 14.2436 3.86672 14.2436C4.05429 14.2436 4.2321 14.1322 4.30735 13.9483L5.59198 10.8086L6.68768 11.2544C6.76499 11.2859 6.80367 11.3778 6.7723 11.4547L6.4995 12.1217C6.4981 12.1247 6.4964 12.1275 6.49505 12.1305C6.49004 12.1418 6.48598 12.1533 6.48192 12.1647L4.60385 16.7572C4.60279 16.7596 4.60144 16.7619 4.60044 16.7643C4.59869 16.7685 4.59743 16.7727 4.59583 16.7769L4.32123 17.4484C4.28962 17.5255 4.19748 17.5639 4.12048 17.5328ZM6.44705 19.998C6.41794 19.8804 6.43633 19.7592 6.49915 19.6562L7.28899 18.3568C7.37426 18.2162 7.53048 18.1375 7.68829 18.1375C7.7685 18.1375 7.84907 18.1578 7.92106 18.2006C8.02437 18.2625 8.09746 18.3615 8.12687 18.4794C8.15643 18.598 8.13815 18.7206 8.07532 18.8246L7.28583 20.1221C7.15697 20.3346 6.86749 20.4061 6.65381 20.2782C6.54976 20.2159 6.47636 20.1164 6.44705 19.998ZM7.9419 21.7969C7.83859 21.7351 7.7655 21.6358 7.73604 21.5174C7.70653 21.3987 7.72477 21.2764 7.78764 21.1728L8.91225 19.3159C8.99873 19.1733 9.15143 19.0944 9.30734 19.0944C9.38756 19.0944 9.46862 19.1152 9.54192 19.1591C9.64598 19.2218 9.71942 19.3216 9.74883 19.4402C9.77824 19.559 9.7598 19.6815 9.69698 19.7855L8.57257 21.6407C8.44161 21.8565 8.15874 21.9267 7.94195 21.7969L7.9419 21.7969ZM9.77819 22.3919C9.67428 22.3297 9.60089 22.2301 9.57153 22.1113C9.54232 21.9932 9.56065 21.8716 9.62373 21.7682L10.5296 20.2753C10.6163 20.1327 10.7693 20.0536 10.9257 20.0536C11.0064 20.0536 11.088 20.0746 11.1619 20.1189C11.2659 20.1811 11.3393 20.2806 11.3686 20.3991C11.3977 20.5167 11.3794 20.6378 11.3169 20.7402C11.3167 20.7406 11.3165 20.741 11.3162 20.7413L10.8075 21.5805L10.6537 21.834C10.6526 21.8358 10.6516 21.8376 10.6505 21.8394L10.4108 22.2349C10.2788 22.4513 9.99503 22.5217 9.77824 22.392L9.77819 22.3919ZM11.6215 22.9487C11.5175 22.8864 11.4441 22.7869 11.4148 22.6685C11.386 22.5521 11.4039 22.4322 11.4654 22.3296L11.6523 22.0212L12.2944 20.963C12.3818 20.8199 12.5355 20.7406 12.6922 20.7406C12.7728 20.7406 12.8543 20.7616 12.9279 20.8057C13.0314 20.8678 13.1045 20.9672 13.1338 21.0856C13.144 21.1266 13.148 21.168 13.1468 21.209C13.1312 21.2541 13.1228 21.3005 13.1212 21.3468C13.1109 21.3753 13.0979 21.403 13.0818 21.4294C13.0818 21.4294 13.0818 21.4294 13.0817 21.4295L12.2542 22.7917C12.1222 23.0081 11.8384 23.0786 11.6215 22.9488V22.9487ZM14.2287 22.83C14.0983 23.0457 13.8164 23.1157 13.6009 22.9861L13.3429 22.8309L13.8173 22.0501L14.0885 22.2128C14.2911 22.3468 14.3542 22.6227 14.2287 22.83ZM18.1668 18.6748C18.0364 18.8904 17.7545 18.9605 17.5385 18.8307C17.5385 18.8307 17.5384 18.8307 17.5384 18.8306L14.9951 17.3021C14.7701 17.167 14.4777 17.2392 14.3421 17.4637C14.2065 17.6882 14.279 17.9799 14.5041 18.1151L17.0476 19.6438C17.0476 19.6438 17.0477 19.6438 17.0477 19.6438H17.0478C17.1512 19.7059 17.2243 19.8055 17.2539 19.9244C17.2834 20.0435 17.2652 20.1662 17.2023 20.2703C17.0723 20.4856 16.7904 20.5551 16.5751 20.4264L16.1832 20.1898C16.1832 20.1898 16.1829 20.1897 16.1828 20.1896C16.1827 20.1895 16.1826 20.1894 16.1825 20.1894L13.335 18.478C13.11 18.3427 12.8176 18.415 12.682 18.6396C12.5464 18.8641 12.6189 19.1557 12.844 19.291L15.6906 21.0019L15.6923 21.003C15.9076 21.1333 15.9772 21.4139 15.8478 21.6284C15.7215 21.837 15.4459 21.9108 15.2332 21.7931C15.0958 21.7171 14.9507 21.6275 14.8104 21.5409C14.7364 21.4953 14.663 21.4499 14.5904 21.4063C14.5903 21.4062 14.5901 21.4062 14.59 21.4061L14.0961 21.1097C14.0908 21.0257 14.0782 20.9416 14.0576 20.8581C13.9673 20.493 13.7404 20.1856 13.418 19.992C13.0329 19.7616 12.5795 19.7369 12.1875 19.8854C12.0695 19.6461 11.8857 19.4452 11.6513 19.3049C11.3392 19.118 10.9823 19.0662 10.6498 19.1322C10.5475 18.8026 10.3311 18.5255 10.0323 18.3457C9.71942 18.1584 9.3616 18.1069 9.02859 18.1738C8.92643 17.843 8.70924 17.5655 8.40949 17.3861C7.90718 17.087 7.29014 17.136 6.84525 17.4614C6.67145 17.2294 6.45281 17.0472 6.19369 16.9226C6.18678 16.9193 6.17976 16.9162 6.1727 16.9132L5.65676 16.6952L7.18689 12.9535C8.07332 13.3329 8.95098 13.6028 10.102 13.0439C10.6574 12.7744 11.232 12.7644 11.7407 13.002C11.147 13.4896 10.5625 13.8868 9.99498 14.2721C9.85354 14.3681 9.71486 14.4623 9.58084 14.5547C9.3347 14.723 9.05784 15.051 9.01892 15.4666C8.99096 15.765 9.09727 16.0512 9.31817 16.2725C10.0378 16.9939 11.1421 17.0098 12.6002 16.3196C13.5248 15.9135 14.4922 15.9824 15.4759 16.5244C15.7388 16.6822 16.0232 16.839 16.3241 17.0051C16.9565 17.3539 17.6103 17.7147 18.0662 18.0881C18.0763 18.0963 18.0867 18.104 18.0973 18.1113C18.2484 18.2642 18.2802 18.4859 18.1667 18.6747L18.1668 18.6748ZM18.446 17.1809C17.9576 16.8216 17.3627 16.4934 16.7847 16.1745C16.4888 16.0113 16.2094 15.8571 15.9595 15.7069C15.9546 15.704 15.9497 15.7012 15.9447 15.6984C15.2383 15.3075 14.5169 15.1113 13.8059 15.1113C13.2639 15.1113 12.728 15.2253 12.2096 15.4542C12.2056 15.456 12.2017 15.4577 12.1978 15.4596C11.4706 15.8045 10.4978 16.1094 9.99257 15.6028C9.96451 15.5748 9.96547 15.5647 9.96642 15.5549C9.97243 15.4906 10.0438 15.389 10.1205 15.3365C10.2541 15.2444 10.391 15.1515 10.5306 15.0567C11.1644 14.6263 11.8829 14.1384 12.5993 13.5217C12.6103 13.5123 12.6209 13.5023 12.631 13.4918C13.2687 12.8322 14.1283 12.685 14.9304 13.0981C14.9305 13.0981 14.9307 13.0983 14.9308 13.0983C16.0581 13.6777 16.9691 13.4273 17.8312 13.084L19.3109 16.8414L18.446 17.1808L18.446 17.1809ZM24.0322 16.6096C24.0218 16.6313 23.9965 16.6702 23.9456 16.6879L20.8101 17.773C20.7313 17.8003 20.6415 17.7571 20.6143 17.6792L20.4012 17.0665C20.3972 17.0227 20.3873 16.9788 20.3704 16.9358L20.245 16.6172L18.4867 11.5615C18.469 11.5107 18.4838 11.4674 18.4942 11.4461C18.5046 11.4246 18.5298 11.3859 18.5814 11.3681L19.6994 10.9806L20.8145 14.1833L20.8146 14.1838C20.8829 14.3798 21.067 14.5028 21.264 14.5028C21.3157 14.5028 21.3684 14.4943 21.4199 14.4765C21.6681 14.3906 21.7995 14.1203 21.7136 13.8728L21.6383 13.656H21.6382L20.5983 10.6692L21.7148 10.2823C21.7945 10.255 21.8851 10.2986 21.9124 10.377L24.0399 16.4932C24.0577 16.5443 24.0427 16.5881 24.0323 16.6097L24.0322 16.6096ZM12.5001 11.0997C15.5682 11.0997 18.0643 8.60972 18.0643 5.54906C18.0643 2.48841 15.5683 0 12.5001 0C9.43195 0 6.93588 2.48936 6.93588 5.54916C6.93588 8.60896 9.432 11.0998 12.5001 11.0998L12.5001 11.0997ZM12.5001 0.949083C15.0435 0.949083 17.1128 3.01263 17.1128 5.54906C17.1128 8.08549 15.0435 10.1505 12.5001 10.1505C9.9566 10.1505 7.88734 8.0863 7.88734 5.54906C7.88734 3.01183 9.9566 0.949083 12.5001 0.949083ZM12.5484 7.32563C13.1607 7.32563 13.7208 7.01547 14.0466 6.49589C14.186 6.27369 14.4796 6.20632 14.7023 6.34521C14.925 6.4842 14.9927 6.77707 14.8533 6.99927C14.3525 7.79792 13.4908 8.27476 12.5484 8.27476C11.6059 8.27476 10.7437 7.79767 10.2444 6.99862C10.1054 6.77617 10.1735 6.4834 10.3965 6.34481C10.6194 6.20607 10.913 6.27404 11.052 6.49649C11.3763 7.01567 11.9357 7.32563 12.5484 7.32563ZM13.6518 4.216C13.6518 3.82642 13.97 3.50906 14.3605 3.50906C14.751 3.50906 15.0678 3.82642 15.0678 4.216C15.0678 4.60558 14.7496 4.92154 14.3605 4.92154C13.9714 4.92154 13.6518 4.60418 13.6518 4.216ZM9.9324 4.216C9.9324 3.82642 10.2505 3.50906 10.6397 3.50906C11.0288 3.50906 11.3469 3.82642 11.3469 4.216C11.3469 4.60558 11.0303 4.92154 10.6397 4.92154C10.2491 4.92154 9.9324 4.60418 9.9324 4.216Z" fill="#28422E"/>
</svg>