<svg xmlns="http://www.w3.org/2000/svg" width="24" height="23" viewBox="0 0 24 23" fill="none">
  <path d="M6.62105 18.7303C6.55251 18.7303 6.4853 18.7303 6.41675 18.7295C6.35034 18.7303 6.28393 18.7303 6.21806 18.7303C4.09934 18.7303 2.06998 18.4087 0.349989 17.8001C0.188632 17.7427 0.0718144 17.6016 0.0459439 17.4325C0.0392762 17.3848 -0.126348 16.2532 0.215302 14.8626C0.534816 13.5658 1.37041 11.7914 3.54086 10.699C3.6054 10.6667 3.67688 10.6497 3.74943 10.6497H9.08381C9.15636 10.6497 9.22784 10.6667 9.29238 10.699C10.8705 11.4927 11.9421 12.7281 12.4768 14.3707C12.5086 14.4697 12.5067 14.5764 12.4715 14.6737C11.94 16.1246 12.1203 17.4541 12.1283 17.5099C12.1309 17.5315 12.1333 17.5544 12.1333 17.5766C12.1333 17.7814 11.9978 17.9622 11.8018 18.0209C10.2218 18.4916 8.47892 18.7303 6.62212 18.7303C6.62158 18.7303 6.62158 18.7303 6.62105 18.7303ZM6.41675 17.8019H6.42129C8.0906 17.8185 9.73004 17.623 11.1737 17.2349C11.1455 16.681 11.1628 15.6429 11.5452 14.5121C11.0862 13.2188 10.2216 12.2326 8.97233 11.5775H3.86224C0.948478 13.1068 0.884201 16.1041 0.938609 17.0207C2.49991 17.5328 4.31778 17.803 6.21806 17.803C6.28233 17.803 6.34741 17.8027 6.41249 17.8019H6.41675Z" fill="#28422E"/>
  <path d="M6.35434 10.3702C4.48686 10.3702 2.96851 8.85132 2.96851 6.98411C2.96851 5.11797 4.48686 3.59961 6.35434 3.59961C8.22048 3.59961 9.73857 5.11797 9.73857 6.98411C9.73857 8.85132 8.22048 10.3702 6.35434 10.3702ZM6.35434 4.52695C4.99841 4.52695 3.89558 5.62898 3.89558 6.98385C3.89558 8.33951 4.99841 9.44261 6.35434 9.44261C7.70921 9.44261 8.8115 8.33951 8.8115 6.98385C8.8115 5.62898 7.70921 4.52695 6.35434 4.52695Z" fill="#28422E"/>
  <path d="M7.06448 12.9406H5.84403C5.63174 12.9406 5.44638 12.7961 5.39463 12.5902L5.05085 11.2271C5.01565 11.0884 5.04658 10.9414 5.1346 10.8286C5.22234 10.716 5.35756 10.6499 5.50025 10.6499H7.39653C7.53869 10.6499 7.67284 10.7152 7.76085 10.8273C7.84886 10.939 7.8806 11.0854 7.84673 11.2236L7.51468 12.587C7.46481 12.7945 7.27811 12.9406 7.06448 12.9406ZM6.20569 12.013H6.70016L6.80658 11.577H6.09554L6.20569 12.013Z" fill="#28422E"/>
  <path d="M6.41026 17.6966C6.40652 17.6966 6.40386 17.6966 6.40012 17.6966C6.25317 17.6934 6.11581 17.6203 6.03127 17.4997L4.99832 16.0329C4.92977 15.9363 4.9015 15.8174 4.9183 15.7008L5.38504 12.4115C5.41731 12.183 5.61307 12.0131 5.84404 12.0131H7.06449C7.29759 12.0131 7.49389 12.1854 7.52429 12.4163L7.96329 15.7515C7.98009 15.8736 7.94649 15.9971 7.87127 16.0947L6.77725 17.5157C6.69003 17.6299 6.55401 17.6966 6.41026 17.6966ZM5.86191 15.6493L6.42679 16.4511L7.01861 15.6819L6.65776 12.9407H6.2473L5.86191 15.6493Z" fill="#28422E"/>
  <path d="M9.08957 6.96396C7.94567 6.96423 7.13728 6.70232 6.48145 6.49029C5.4725 6.16384 4.91722 5.98435 3.75332 6.80527C3.54422 6.95302 3.25484 6.90315 3.10709 6.69405C2.95933 6.48469 3.00947 6.19531 3.21884 6.04756C4.7604 4.95886 5.69067 5.25971 6.76656 5.60776C7.41732 5.81819 8.1561 6.05716 9.22559 6.03502H9.23546C9.48723 6.03502 9.69419 6.23638 9.69926 6.48922C9.70486 6.74526 9.5011 6.95729 9.24453 6.96236C9.19279 6.96343 9.14051 6.96396 9.08957 6.96396Z" fill="#28422E"/>
  <path d="M17.5193 10.5837C15.6523 10.5837 14.1345 9.06562 14.1345 7.19948C14.1345 5.33227 15.6523 3.81311 17.5193 3.81311C19.3862 3.81311 20.9049 5.33227 20.9049 7.19948C20.9051 9.06562 19.3862 10.5837 17.5193 10.5837ZM17.5193 4.74071C16.1636 4.74071 15.0621 5.84354 15.0621 7.19948C15.0621 8.55408 16.1636 9.65611 17.5193 9.65611C18.875 9.65611 19.9773 8.55381 19.9773 7.19948C19.9773 5.84354 18.875 4.74071 17.5193 4.74071Z" fill="#28422E"/>
  <path d="M17.7811 18.9458C17.7147 18.9458 17.6491 18.9458 17.5835 18.945C17.5171 18.9455 17.4509 18.9458 17.3853 18.9458C15.2698 18.9458 13.2399 18.6236 11.5149 18.0139C11.3535 17.9571 11.2369 17.8155 11.2108 17.6461C11.2036 17.5989 11.0385 16.4673 11.3812 15.0767C11.7005 13.7805 12.5371 12.0061 14.7073 10.9131C14.7713 10.8806 14.8436 10.8635 14.9154 10.8635H20.2505C20.3231 10.8635 20.3946 10.8806 20.4591 10.9131C22.629 12.0061 23.4652 13.7805 23.7841 15.0772C24.1266 16.4676 23.9607 17.5992 23.954 17.6467C23.9279 17.8158 23.8116 17.9568 23.65 18.0139C21.9271 18.6236 19.8969 18.9458 17.7811 18.9458ZM17.5835 18.0171C17.5846 18.0171 17.5862 18.0174 17.5878 18.0174C19.5528 18.0358 21.4441 17.7654 23.0614 17.2343C23.0843 16.8519 23.0875 16.1078 22.8755 15.2663C22.4826 13.7066 21.5627 12.5382 20.138 11.7909H15.0279C13.6042 12.5384 12.6833 13.7071 12.2896 15.2663C12.0776 16.1075 12.0808 16.8511 12.1035 17.2343C13.669 17.7475 15.4874 18.0179 17.3853 18.0179C17.4493 18.0179 17.5141 18.0177 17.579 18.0171C17.5803 18.0174 17.5819 18.0171 17.5835 18.0171Z" fill="#28422E"/>
  <path d="M18.2308 13.1545H17.0091C16.7968 13.1545 16.6111 13.01 16.5594 12.8035L16.2172 11.4401C16.1828 11.3017 16.2132 11.1545 16.301 11.042C16.389 10.9294 16.5242 10.8635 16.6671 10.8635H18.5626C18.705 10.8635 18.8397 10.9289 18.9275 11.0409C19.0155 11.1529 19.0472 11.2991 19.0136 11.4372L18.6813 12.8006C18.6309 13.0081 18.4447 13.1545 18.2308 13.1545ZM17.371 12.2269H17.8665L17.9732 11.7911H17.2614L17.371 12.2269Z" fill="#28422E"/>
  <path d="M17.5767 17.9107C17.5735 17.9107 17.5698 17.9105 17.5669 17.9105C17.4189 17.9073 17.282 17.8344 17.197 17.7136L16.1643 16.2467C16.0965 16.1502 16.068 16.0315 16.0848 15.915L16.5502 12.6257C16.5822 12.3968 16.7774 12.2267 17.0089 12.2267H18.2307C18.4638 12.2267 18.6604 12.3992 18.6913 12.6299L19.13 15.9654C19.146 16.0875 19.1132 16.2107 19.038 16.3086L17.944 17.7296C17.856 17.8438 17.7205 17.9107 17.5767 17.9107ZM17.0284 15.863L17.593 16.6647L18.1851 15.8955L17.8248 13.1546H17.4122L17.0284 15.863Z" fill="#28422E"/>
  <path d="M20.2548 7.17775C19.112 7.17775 18.3028 6.91638 17.6477 6.70435C16.6388 6.3779 16.0827 6.19814 14.9185 7.01933C14.7092 7.16709 14.4198 7.11721 14.2723 6.90785C14.1237 6.69848 14.1744 6.40911 14.3841 6.26162C15.9272 5.17319 16.8567 5.47377 17.9336 5.82235C18.5841 6.03278 19.3205 6.27229 20.3908 6.24935H20.4004C20.6524 6.24935 20.8594 6.45071 20.8642 6.70355C20.8693 6.95959 20.666 7.17135 20.41 7.17669C20.3572 7.17775 20.3057 7.17775 20.2548 7.17775Z" fill="#28422E"/>
  <path d="M11.8635 22.5133C10.0851 22.5133 7.75972 21.9857 6.86332 20.4818C6.73264 20.2615 6.80438 19.9769 7.02441 19.8459C7.24498 19.715 7.52955 19.7867 7.66077 20.007C8.24113 20.9813 9.97765 21.6139 11.983 21.5851C13.7214 21.5587 15.1307 21.0293 15.571 20.2361C15.6956 20.0123 15.9777 19.9315 16.202 20.0561C16.4258 20.1804 16.5061 20.4628 16.3821 20.6868C15.6542 21.9953 13.6398 22.4876 11.9969 22.5125C11.9529 22.513 11.9081 22.5133 11.8635 22.5133Z" fill="#28422E"/>
  <path d="M7.22078 22.5055C6.96634 22.5055 6.75884 22.2999 6.75724 22.0452L6.74391 20.1934C6.74311 20.0662 6.79405 19.9446 6.88553 19.8563C6.97647 19.7683 7.09943 19.7227 7.22664 19.7264L9.15866 19.8054C9.41443 19.816 9.61366 20.0318 9.60353 20.2878C9.59286 20.5436 9.37603 20.741 9.12106 20.7322L7.67444 20.6729L7.68431 22.0382C7.68591 22.2945 7.47975 22.5036 7.22344 22.5052C7.22318 22.5055 7.22238 22.5055 7.22078 22.5055Z" fill="#28422E"/>
  <path d="M15.9227 2.73272C15.764 2.73272 15.6106 2.65191 15.5237 2.50602C14.9436 1.53255 13.206 0.895917 11.2017 0.928189C9.46278 0.954326 8.05351 1.48374 7.61291 2.27719C7.48889 2.50096 7.20645 2.58177 6.98242 2.45722C6.75865 2.33266 6.67811 2.05049 6.80212 1.82646C7.52943 0.517995 9.54466 0.025388 11.1873 0.000850998C12.9809 -0.0239527 15.4021 0.489724 16.3201 2.03155C16.4513 2.25159 16.3795 2.53616 16.159 2.66738C16.0851 2.71165 16.003 2.73272 15.9227 2.73272Z" fill="#28422E"/>
  <path d="M15.9765 2.78716C15.9701 2.78716 15.9637 2.78689 15.9571 2.78663L14.0248 2.70608C13.769 2.69541 13.5703 2.47938 13.5804 2.22334C13.5914 1.96757 13.8087 1.76941 14.0635 1.77901L15.5095 1.83955L15.4991 0.474815C15.4978 0.218511 15.7037 0.00941274 15.9603 0.0078125H15.9632C16.2182 0.0078125 16.4257 0.213443 16.427 0.468148L16.4401 2.31989C16.4409 2.44711 16.3897 2.56846 16.2987 2.65701C16.212 2.74022 16.0963 2.78716 15.9765 2.78716Z" fill="#28422E"/>
</svg>