<svg xmlns="http://www.w3.org/2000/svg" width="24" height="24" viewBox="0 0 24 24" fill="none">
  <path d="M4.80014 2.39828C4.80014 2.16108 4.72977 1.92921 4.59791 1.73198C4.46605 1.53476 4.27864 1.38104 4.05937 1.29027C3.84009 1.19949 3.59881 1.17574 3.36604 1.22202C3.13326 1.2683 2.91944 1.38252 2.75162 1.55024C2.5838 1.71797 2.46951 1.93167 2.4232 2.16431C2.3769 2.39695 2.40067 2.63809 2.49149 2.85724C2.58232 3.07638 2.73612 3.26369 2.93346 3.39547C3.1308 3.52725 3.36281 3.59759 3.60015 3.59759C3.9184 3.59759 4.22363 3.47123 4.44867 3.24632C4.67372 3.02141 4.80014 2.71636 4.80014 2.39828ZM3.20015 2.39828C3.20015 2.31922 3.22361 2.24192 3.26756 2.17618C3.31151 2.11044 3.37398 2.0592 3.44707 2.02894C3.52016 1.99869 3.60059 1.99077 3.67818 2.00619C3.75577 2.02162 3.82705 2.05969 3.88299 2.1156C3.93893 2.17151 3.97703 2.24274 3.99246 2.32029C4.00789 2.39784 3.99997 2.47822 3.9697 2.55127C3.93942 2.62432 3.88815 2.68675 3.82237 2.73068C3.75659 2.77461 3.67926 2.79805 3.60015 2.79805C3.49406 2.79805 3.39232 2.75593 3.3173 2.68096C3.24229 2.60599 3.20015 2.50431 3.20015 2.39828Z" fill="#28422E"/>
  <path d="M20 3.59759C20.2374 3.59759 20.4694 3.52725 20.6667 3.39547C20.8641 3.26369 21.0179 3.07638 21.1087 2.85724C21.1995 2.63809 21.2233 2.39695 21.177 2.16431C21.1307 1.93167 21.0164 1.71797 20.8486 1.55024C20.6808 1.38252 20.4669 1.2683 20.2342 1.22202C20.0014 1.17574 19.7601 1.19949 19.5408 1.29027C19.3216 1.38104 19.1341 1.53476 19.0023 1.73198C18.8704 1.92921 18.8 2.16108 18.8 2.39828C18.8 2.71636 18.9265 3.02141 19.1515 3.24632C19.3766 3.47123 19.6818 3.59759 20 3.59759ZM20 1.99851C20.0792 1.99851 20.1565 2.02196 20.2223 2.06589C20.2881 2.10981 20.3393 2.17225 20.3696 2.2453C20.3999 2.31835 20.4078 2.39873 20.3924 2.47627C20.3769 2.55382 20.3388 2.62505 20.2829 2.68096C20.2269 2.73687 20.1557 2.77495 20.0781 2.79037C20.0005 2.8058 19.9201 2.79788 19.847 2.76762C19.7739 2.73736 19.7114 2.68612 19.6675 2.62038C19.6235 2.55464 19.6 2.47735 19.6 2.39828C19.6 2.29226 19.6422 2.19057 19.7172 2.1156C19.7922 2.04063 19.894 1.99851 20 1.99851Z" fill="#28422E"/>
  <path d="M18.4 13.1922C18.4 12.955 18.3296 12.7232 18.1978 12.5259C18.0659 12.3287 17.8785 12.175 17.6592 12.0842C17.4399 11.9934 17.1987 11.9697 16.9659 12.016C16.7331 12.0622 16.5193 12.1765 16.3515 12.3442C16.1836 12.5119 16.0694 12.7256 16.0231 12.9583C15.9768 13.1909 16.0005 13.432 16.0913 13.6512C16.1822 13.8703 16.336 14.0576 16.5333 14.1894C16.7307 14.3212 16.9627 14.3915 17.2 14.3915C17.5183 14.3915 17.8235 14.2652 18.0485 14.0403C18.2736 13.8154 18.4 13.5103 18.4 13.1922ZM16.8 13.1922C16.8 13.1132 16.8235 13.0359 16.8674 12.9701C16.9114 12.9044 16.9738 12.8531 17.0469 12.8229C17.12 12.7926 17.2004 12.7847 17.278 12.8001C17.3556 12.8156 17.4269 12.8536 17.4828 12.9095C17.5388 12.9655 17.5769 13.0367 17.5923 13.1142C17.6077 13.1918 17.5998 13.2722 17.5695 13.3452C17.5393 13.4183 17.488 13.4807 17.4222 13.5246C17.3564 13.5686 17.2791 13.592 17.2 13.592C17.0939 13.592 16.9922 13.5499 16.9172 13.4749C16.8421 13.3999 16.8 13.2983 16.8 13.1922Z" fill="#28422E"/>
  <path d="M3.6001 10.7935C3.6001 11.0307 3.67048 11.2626 3.80233 11.4598C3.93419 11.6571 4.12161 11.8108 4.34088 11.9016C4.56015 11.9923 4.80143 12.0161 5.0342 11.9698C5.26698 11.9235 5.4808 11.8093 5.64862 11.6416C5.81645 11.4739 5.93073 11.2602 5.97704 11.0275C6.02334 10.7949 5.99958 10.5537 5.90875 10.3346C5.81793 10.1154 5.66412 9.92814 5.46678 9.79636C5.26944 9.66458 5.03743 9.59424 4.8001 9.59424C4.48184 9.59424 4.17661 9.72059 3.95157 9.94551C3.72653 10.1704 3.6001 10.4755 3.6001 10.7935ZM5.2001 10.7935C5.2001 10.8726 5.17664 10.9499 5.13268 11.0156C5.08873 11.0814 5.02626 11.1326 4.95317 11.1629C4.88008 11.1931 4.79965 11.2011 4.72206 11.1856C4.64447 11.1702 4.57319 11.1321 4.51725 11.0762C4.46131 11.0203 4.42322 10.9491 4.40778 10.8715C4.39235 10.794 4.40027 10.7136 4.43054 10.6406C4.46082 10.5675 4.51209 10.5051 4.57787 10.4611C4.64365 10.4172 4.72098 10.3938 4.8001 10.3938C4.90618 10.3938 5.00792 10.4359 5.08294 10.5109C5.15795 10.5858 5.2001 10.6875 5.2001 10.7935Z" fill="#28422E"/>
  <path d="M11.2 5.99634C10.9627 5.99634 10.7307 6.06668 10.5333 6.19846C10.336 6.33024 10.1822 6.51755 10.0913 6.73669C10.0005 6.95583 9.97676 7.19698 10.0231 7.42962C10.0694 7.66226 10.1836 7.87596 10.3515 8.04368C10.5193 8.21141 10.7331 8.32563 10.9659 8.37191C11.1987 8.41818 11.4399 8.39443 11.6592 8.30366C11.8785 8.21289 12.0659 8.05917 12.1978 7.86194C12.3296 7.66472 12.4 7.43285 12.4 7.19565C12.4 6.87757 12.2736 6.57252 12.0485 6.34761C11.8235 6.12269 11.5183 5.99634 11.2 5.99634ZM11.2 7.59541C11.1209 7.59541 11.0436 7.57197 10.9778 7.52804C10.912 7.48411 10.8607 7.42168 10.8304 7.34863C10.8002 7.27558 10.7923 7.1952 10.8077 7.11765C10.8231 7.04011 10.8612 6.96887 10.9172 6.91297C10.9731 6.85706 11.0444 6.81898 11.122 6.80356C11.1996 6.78813 11.28 6.79605 11.3531 6.82631C11.4262 6.85656 11.4886 6.9078 11.5326 6.97355C11.5765 7.03929 11.6 7.11658 11.6 7.19565C11.6 7.30167 11.5579 7.40335 11.4828 7.47832C11.4078 7.5533 11.3061 7.59541 11.2 7.59541Z" fill="#28422E"/>
  <path d="M12.8001 17.1898C12.8001 16.9526 12.7298 16.7207 12.5979 16.5235C12.466 16.3263 12.2786 16.1725 12.0594 16.0818C11.8401 15.991 11.5988 15.9672 11.366 16.0135C11.1333 16.0598 10.9194 16.174 10.7516 16.3417C10.5838 16.5095 10.4695 16.7232 10.4232 16.9558C10.3769 17.1885 10.4007 17.4296 10.4915 17.6487C10.5823 17.8679 10.7361 18.0552 10.9335 18.187C11.1308 18.3188 11.3628 18.3891 11.6001 18.3891C11.9184 18.3891 12.2236 18.2627 12.4487 18.0378C12.6737 17.8129 12.8001 17.5079 12.8001 17.1898ZM11.2001 17.1898C11.2001 17.1107 11.2236 17.0334 11.2676 16.9677C11.3115 16.9019 11.374 16.8507 11.4471 16.8204C11.5202 16.7902 11.6006 16.7823 11.6782 16.7977C11.7558 16.8131 11.827 16.8512 11.883 16.9071C11.9389 16.963 11.977 17.0342 11.9925 17.1118C12.0079 17.1893 12 17.2697 11.9697 17.3428C11.9394 17.4158 11.8882 17.4783 11.8224 17.5222C11.7566 17.5661 11.6793 17.5896 11.6001 17.5896C11.4941 17.5896 11.3923 17.5474 11.3173 17.4725C11.2423 17.3975 11.2001 17.2958 11.2001 17.1898Z" fill="#28422E"/>
  <path d="M21.4632 4.63232C21.9484 3.86516 22.4 2.99206 22.4 2.39841C22.3994 1.84345 22.2063 1.30588 21.8535 0.877284C21.5008 0.448691 21.0103 0.155598 20.4656 0.0479512C19.9208 -0.059696 19.3556 0.0247625 18.8662 0.286935C18.3768 0.549107 17.9935 0.972771 17.7816 1.48573C15.9544 0.479335 13.8958 -0.0322907 11.8097 0.00157872C9.7237 0.0354481 7.68275 0.613636 5.88923 1.67882C5.71706 1.13234 5.35486 0.665506 4.86816 0.362779C4.38146 0.0600513 3.80241 -0.0585684 3.23579 0.0283825C2.66918 0.115333 2.15241 0.402111 1.77901 0.836826C1.40561 1.27154 1.20023 1.82548 1.20003 2.39841C1.20003 3.06682 1.77243 4.08983 2.32003 4.91695C0.807206 6.96578 -0.0061754 9.44656 3.53042e-05 11.9929C-0.00220561 13.9033 0.452239 15.7866 1.32553 17.486C2.19882 19.1854 3.4657 20.6517 5.02066 21.7629C6.57562 22.874 8.37368 23.5978 10.2651 23.874C12.1566 24.1502 14.0867 23.9708 15.8947 23.3508C17.7028 22.7307 19.3365 21.6879 20.6597 20.3093C21.983 18.9306 22.9576 17.256 23.5024 15.4248C24.0471 13.5936 24.1463 11.6588 23.7916 9.78154C23.4369 7.90429 22.6386 6.13888 21.4632 4.63232ZM20 0.79933C20.4244 0.79933 20.8313 0.967803 21.1314 1.26769C21.4314 1.56757 21.6 1.9743 21.6 2.39841C21.6 3.00646 20.7168 4.38606 20 5.34271C19.2832 4.38606 18.4 3.00646 18.4 2.39841C18.4 1.9743 18.5686 1.56757 18.8686 1.26769C19.1687 0.967803 19.5757 0.79933 20 0.79933ZM19.688 6.24618C19.7255 6.29287 19.773 6.33056 19.827 6.35645C19.881 6.38234 19.9401 6.39579 20 6.39579C20.0599 6.39579 20.119 6.38234 20.173 6.35645C20.227 6.33056 20.2745 6.29287 20.312 6.24618C20.3864 6.15344 20.664 5.80204 20.992 5.33591C22.3788 7.20498 23.1478 9.45974 23.192 11.7862L22.4 11.1933C22.1522 11.0066 21.951 10.7651 21.8122 10.4876C21.6734 10.2102 21.6008 9.90443 21.6 9.59425V8.58284C21.6 7.74932 21.0608 7.47827 20.5396 7.21642L20.0964 6.99575C19.9268 6.91205 19.74 6.86915 19.5509 6.87047C19.3618 6.87179 19.1756 6.91729 19.0072 7.00335C18.8527 7.08004 18.7186 7.19222 18.6158 7.33071C18.5131 7.4692 18.4446 7.63005 18.416 7.80009C18.4054 7.86458 18.4001 7.92982 18.4 7.99517V8.90345C18.4033 8.96934 18.3835 9.03432 18.344 9.08717C18.3045 9.14001 18.2478 9.17741 18.1836 9.19288C18.1207 9.20071 18.0573 9.18337 18.0072 9.14465C17.9571 9.10594 17.9243 9.04898 17.916 8.9862L17.644 7.0829C17.616 6.89269 17.5207 6.71881 17.3754 6.5928C17.2301 6.4668 17.0444 6.39701 16.852 6.3961H16.8C16.6939 6.3961 16.5922 6.35398 16.5172 6.27901C16.4422 6.20404 16.4 6.10235 16.4 5.99633V5.59656C16.4 5.27848 16.2736 4.97343 16.0485 4.74852C15.8235 4.52361 15.5183 4.39725 15.2 4.39725H14.4C14.2939 4.39725 14.1922 4.35513 14.1172 4.28016C14.0422 4.20519 14 4.10351 14 3.99748V0.984023C15.2688 1.21237 16.4885 1.65872 17.6048 2.30326C17.6048 2.33484 17.6 2.36642 17.6 2.39841C17.6 3.60771 19.4744 5.97994 19.688 6.24618ZM3.60003 0.79933C4.02438 0.79933 4.43134 0.967803 4.7314 1.26769C5.03146 1.56757 5.20003 1.9743 5.20003 2.39841C5.20003 3.00646 4.31683 4.38606 3.60003 5.34271C2.88323 4.38606 2.00003 3.00646 2.00003 2.39841C2.00003 1.9743 2.1686 1.56757 2.46866 1.26769C2.76872 0.967803 3.17569 0.79933 3.60003 0.79933ZM2.80683 5.61375C3.04283 5.93716 3.22923 6.17343 3.28683 6.24618C3.32431 6.29287 3.37181 6.33056 3.42581 6.35645C3.47981 6.38234 3.53894 6.39579 3.59883 6.39579C3.65873 6.39579 3.71786 6.38234 3.77186 6.35645C3.82586 6.33056 3.87335 6.29287 3.91083 6.24618C4.11563 5.99073 5.84283 3.8024 5.98483 2.55632C6.85817 1.99621 7.8058 1.56129 8.80002 1.26426V3.19794C8.80002 3.30397 8.75788 3.40565 8.68287 3.48062C8.60785 3.5556 8.50611 3.59771 8.40003 3.59771C8.08232 3.5995 7.77813 3.72643 7.55347 3.95095C7.32881 4.17548 7.20181 4.4795 7.20003 4.79702V6.79587C7.20003 6.90189 7.15788 7.00358 7.08287 7.07855C7.00786 7.15352 6.90611 7.19564 6.80003 7.19564H5.20003C5.03037 7.1935 4.86223 7.22781 4.70698 7.29622C4.55172 7.36463 4.41298 7.46556 4.30012 7.59219C4.18727 7.71881 4.10293 7.86818 4.05281 8.03019C4.0027 8.1922 3.98797 8.36308 4.00963 8.53126C3.54 8.69541 3.13294 9.0012 2.84462 9.40642C2.55631 9.81165 2.40096 10.2963 2.40003 10.7936C2.40003 12.0029 4.27443 14.3751 4.48803 14.6413C4.52551 14.688 4.573 14.7257 4.62701 14.7516C4.68101 14.7775 4.74014 14.7909 4.80003 14.7909C4.85992 14.7909 4.91905 14.7775 4.97305 14.7516C5.02706 14.7257 5.07455 14.688 5.11203 14.6413C5.32563 14.3751 7.20003 12.0029 7.20003 10.7936C7.19983 10.3721 7.08775 9.95826 6.87523 9.59425H9.84282C10.3132 10.3174 10.7868 10.9175 10.888 11.0434C10.9255 11.0901 10.973 11.1278 11.027 11.1537C11.081 11.1796 11.1401 11.193 11.2 11.193C11.2599 11.193 11.319 11.1796 11.373 11.1537C11.427 11.1278 11.4745 11.0901 11.512 11.0434C11.5672 10.9747 11.7344 10.7636 11.952 10.4697C11.9828 10.575 11.999 10.6839 12 10.7936C12 11.4297 11.7472 12.0398 11.2971 12.4896C10.847 12.9395 10.2365 13.1922 9.60002 13.1922H8.80002C8.61392 13.1932 8.43054 13.237 8.26408 13.3202C8.09761 13.4034 7.95252 13.5237 7.84003 13.6719L7.04283 14.7357C6.88383 14.9431 6.79841 15.1976 6.80003 15.4589V18.6222L6.14003 17.9626C6.02886 17.8511 5.95292 17.7095 5.92163 17.5553L5.72163 16.5558C5.66647 16.2841 5.5192 16.0397 5.30466 15.8639C5.09013 15.6881 4.82147 15.5916 4.54403 15.5908H1.39683C0.831601 13.9339 0.664709 12.1673 0.909669 10.434C1.15463 8.70066 1.80456 7.04935 2.80683 5.61375ZM6.40003 10.7936C6.40003 11.4016 5.51683 12.7812 4.80003 13.7379C4.08323 12.7812 3.20003 11.4016 3.20003 10.7936C3.20003 10.3695 3.3686 9.96273 3.66866 9.66284C3.96872 9.36296 4.37568 9.19448 4.80003 9.19448C5.22438 9.19448 5.63134 9.36296 5.9314 9.66284C6.23146 9.96273 6.40003 10.3695 6.40003 10.7936ZM11.2 10.1399C10.4832 9.18329 9.60002 7.80369 9.60002 7.19564C9.60002 6.77153 9.76859 6.3648 10.0687 6.06492C10.3687 5.76503 10.7757 5.59656 11.2 5.59656C11.6244 5.59656 12.0313 5.76503 12.3314 6.06492C12.6314 6.3648 12.8 6.77153 12.8 7.19564C12.8 7.80369 11.9168 9.18329 11.2 10.1399ZM1.70163 16.3903H4.54403C4.63644 16.3909 4.72582 16.4233 4.7972 16.482C4.86857 16.5406 4.91759 16.622 4.93603 16.7125L5.13603 17.7144C5.19879 18.0224 5.35067 18.3053 5.57283 18.5279L6.23323 19.1887C6.34495 19.3008 6.48744 19.3773 6.64265 19.4084C6.79787 19.4395 6.95884 19.4239 7.10518 19.3636C7.25152 19.3032 7.37666 19.2008 7.46475 19.0693C7.55283 18.9379 7.59991 18.7833 7.60003 18.625V15.4589C7.59904 15.3722 7.62721 15.2877 7.68003 15.219L8.48003 14.1536C8.51748 14.104 8.56578 14.0637 8.62125 14.0356C8.67671 14.0075 8.73786 13.9925 8.80002 13.9917H9.60002C10.4487 13.9917 11.2626 13.6548 11.8628 13.055C12.4629 12.4552 12.8 11.6418 12.8 10.7936C12.7993 10.4105 12.6882 10.0358 12.48 9.71418C13.0276 8.88706 13.6 7.86405 13.6 7.19564C13.6 6.55948 13.3472 5.94939 12.8971 5.49956C12.447 5.04973 11.8365 4.79702 11.2 4.79702C10.5635 4.79702 9.95305 5.04973 9.50297 5.49956C9.05288 5.94939 8.80002 6.55948 8.80002 7.19564C8.86405 7.76396 9.05546 8.31053 9.36002 8.79471H6.12403C5.7319 8.53367 5.27119 8.39456 4.80003 8.39494C4.80003 8.28892 4.84217 8.18723 4.91719 8.11226C4.9922 8.03729 5.09394 7.99517 5.20003 7.99517H6.80003C7.11829 7.99517 7.42351 7.86882 7.64855 7.64391C7.8736 7.41899 8.00003 7.11394 8.00003 6.79587V4.79702C7.99995 4.74375 8.01076 4.69102 8.03181 4.64207C8.05286 4.59312 8.0837 4.54899 8.12243 4.51239C8.15853 4.47547 8.20174 4.44624 8.24945 4.42645C8.29715 4.40666 8.34838 4.39673 8.40003 4.39725C8.71828 4.39725 9.02351 4.2709 9.24855 4.04598C9.4736 3.82107 9.60002 3.51602 9.60002 3.19794V1.05878C10.7812 0.796229 11.9978 0.732322 13.2 0.869689V3.99748C13.2 4.31556 13.3264 4.62061 13.5515 4.84552C13.7765 5.07044 14.0818 5.19679 14.4 5.19679H15.2C15.3061 5.19679 15.4078 5.23891 15.4829 5.31388C15.5579 5.38885 15.6 5.49053 15.6 5.59656V5.99633C15.6 6.3144 15.7264 6.61945 15.9515 6.84437C16.1765 7.06928 16.4818 7.19564 16.8 7.19564H16.852L17.1248 9.10254C17.1641 9.36891 17.3049 9.60978 17.5179 9.77475C17.7308 9.93972 17.9993 10.016 18.2672 9.98762C18.5283 9.95175 18.7672 9.82173 18.939 9.62205C19.1108 9.42236 19.2036 9.16678 19.2 8.90345V7.99517C19.2 7.97361 19.2017 7.95208 19.2052 7.93081C19.2136 7.88415 19.2331 7.84018 19.2621 7.80262C19.2911 7.76505 19.3286 7.73498 19.3716 7.71494C19.4287 7.68595 19.4916 7.67058 19.5556 7.67003C19.6196 7.66947 19.6829 7.68375 19.7404 7.71174L20.1804 7.93081C20.7144 8.19906 20.8004 8.26542 20.8004 8.58284V9.59425C20.8015 10.0285 20.9032 10.4566 21.0975 10.845C21.2918 11.2334 21.5735 11.5715 21.9204 11.833L23.1704 12.77C23.0329 14.7762 22.3539 16.7076 21.2056 18.3588L20.44 17.8111C20.2368 17.6665 19.9935 17.5891 19.744 17.5896H19.6C19.4939 17.5896 19.3922 17.5475 19.3172 17.4725C19.2422 17.3976 19.2 17.2959 19.2 17.1899V16.7901C19.1996 16.5586 19.1321 16.3322 19.0058 16.1382C18.8794 15.9442 18.6996 15.7909 18.488 15.6967C19.0336 14.8712 19.6 13.857 19.6 13.1922C19.6 12.556 19.3472 11.9459 18.8971 11.4961C18.447 11.0463 17.8365 10.7936 17.2 10.7936C16.5635 10.7936 15.953 11.0463 15.503 11.4961C15.0529 11.9459 14.8 12.556 14.8 13.1922C14.8 13.8298 15.32 14.7888 15.8448 15.5936C15.5664 15.5998 15.2988 15.7031 15.0885 15.8856C14.8782 16.0681 14.7384 16.3183 14.6932 16.593L14.5176 17.656C14.5014 17.7488 14.4531 17.8329 14.3812 17.8939C14.3093 17.9548 14.2183 17.9886 14.124 17.9894H13.818C13.9252 17.7356 13.9868 17.465 14 17.1899C14 16.5537 13.7472 15.9436 13.2971 15.4938C12.847 15.044 12.2365 14.7912 11.6 14.7912C10.9635 14.7912 10.3531 15.044 9.90297 15.4938C9.45288 15.9436 9.20002 16.5537 9.20002 17.1899C9.20002 17.8403 9.74202 18.8257 10.2764 19.6404L10.2344 19.6752C10.0236 19.8464 9.87797 20.0847 9.82184 20.3503C9.7657 20.6158 9.80248 20.8926 9.92602 21.1344L10.4 22.0814V23.0705C8.49968 22.793 6.70225 22.0333 5.17941 20.8638C3.65657 19.6943 2.45919 18.1541 1.70163 16.3903ZM15.6 13.1922C15.6 12.7681 15.7686 12.3613 16.0686 12.0615C16.3687 11.7616 16.7757 11.5931 17.2 11.5931C17.6244 11.5931 18.0313 11.7616 18.3314 12.0615C18.6314 12.3613 18.8 12.7681 18.8 13.1922C18.8 13.8002 17.9168 15.1798 17.2 16.1365C16.4832 15.1798 15.6 13.8002 15.6 13.1922ZM10 17.1899C10 16.7658 10.1686 16.359 10.4687 16.0591C10.7687 15.7593 11.1757 15.5908 11.6 15.5908C12.0244 15.5908 12.4313 15.7593 12.7314 16.0591C13.0314 16.359 13.2 16.7658 13.2 17.1899C13.2 17.7979 12.3168 19.1775 11.6 20.1342C10.8832 19.1775 10 17.7979 10 17.1899ZM12 23.1864C11.7308 23.1864 11.4644 23.1736 11.2 23.1548V21.9871C11.2001 21.9251 11.1857 21.8639 11.158 21.8084L10.64 20.7754C10.6003 20.6979 10.5877 20.6092 10.6043 20.5237C10.6209 20.4382 10.6658 20.3607 10.7316 20.3037C11.0036 20.6806 11.222 20.9569 11.2868 21.0376C11.3243 21.0843 11.3718 21.122 11.4258 21.1479C11.4798 21.1738 11.5389 21.1872 11.5988 21.1872C11.6587 21.1872 11.7178 21.1738 11.7718 21.1479C11.8258 21.122 11.8733 21.0843 11.9108 21.0376C12.4779 20.3286 12.9891 19.5768 13.44 18.7889H14.124C14.4082 18.7895 14.6832 18.689 14.9 18.5054C15.1167 18.3217 15.2609 18.067 15.3068 17.7867L15.4824 16.7237C15.4987 16.6309 15.547 16.5468 15.6189 16.4859C15.6908 16.425 15.7818 16.3912 15.876 16.3903H16.396C16.6384 16.7229 16.83 16.9656 16.89 17.0399C16.9275 17.0866 16.975 17.1243 17.029 17.1502C17.083 17.1761 17.1421 17.1896 17.202 17.1896C17.2619 17.1896 17.321 17.1761 17.375 17.1502C17.429 17.1243 17.4765 17.0866 17.514 17.0399C17.574 16.9656 17.7652 16.7233 18.0072 16.3915C18.1118 16.3934 18.2116 16.4362 18.285 16.5107C18.3584 16.5852 18.3997 16.6855 18.4 16.7901V17.1899C18.4 17.5079 18.5264 17.813 18.7515 18.0379C18.9765 18.2628 19.2818 18.3892 19.6 18.3892H19.744C19.8268 18.3887 19.9076 18.4145 19.9748 18.4627L20.7256 18.9992C19.6779 20.3058 18.3499 21.3605 16.8396 22.0852C15.3293 22.81 13.6754 23.1863 12 23.1864Z" fill="#28422E"/>
</svg>