<svg width="108" height="108" viewBox="0 0 108 108" fill="none" xmlns="http://www.w3.org/2000/svg">
<g filter="url(#filter0_d_5141_1230)">
<rect x="24" y="23" width="60" height="60" rx="30" fill="#FBFFFB"/>
</g>
<path d="M67.7142 40.3407V46.6703C67.7142 47.2529 67.2419 47.7253 66.6593 47.7253C66.0767 47.7253 65.6043 47.2529 65.6043 46.6703V42.8873L58.9656 49.5261C58.7596 49.732 58.4895 49.8352 58.2197 49.8352C57.9499 49.8352 57.6798 49.732 57.4739 49.5261C57.0616 49.1138 57.0616 48.4463 57.4739 48.0344L64.1126 41.3956H60.3296C59.747 41.3956 59.2747 40.9232 59.2747 40.3407C59.2747 39.7581 59.747 39.2857 60.3296 39.2857H66.6593C67.2419 39.2857 67.7142 39.7581 67.7142 40.3407ZM50.526 48.0344L43.8872 41.3956H47.6703C48.2529 41.3956 48.7252 40.9232 48.7252 40.3407C48.7252 39.7581 48.2529 39.2857 47.6703 39.2857H41.3406C40.758 39.2857 40.2856 39.7581 40.2856 40.3407V46.6703C40.2856 47.2529 40.758 47.7253 41.3406 47.7253C41.9232 47.7253 42.3955 47.2529 42.3955 46.6703V42.8873L49.0343 49.5261C49.2403 49.732 49.5103 49.8352 49.7802 49.8352C50.05 49.8352 50.32 49.732 50.526 49.5261C50.9382 49.1141 50.9382 48.4463 50.526 48.0344ZM66.6593 58.2747C66.0767 58.2747 65.6043 58.7471 65.6043 59.3297V63.1127L58.9656 56.4739C58.5533 56.0617 57.8858 56.0617 57.4739 56.4739C57.0619 56.8861 57.0616 57.5537 57.4739 57.9656L64.1126 64.6044H60.3296C59.747 64.6044 59.2747 65.0767 59.2747 65.6593C59.2747 66.2419 59.747 66.7143 60.3296 66.7143H66.6593C67.2419 66.7143 67.7142 66.2419 67.7142 65.6593V59.3297C67.7142 58.7471 67.2419 58.2747 66.6593 58.2747ZM50.526 56.4739C50.1138 56.0617 49.4463 56.0617 49.0343 56.4739L42.3955 63.1127V59.3297C42.3955 58.7471 41.9232 58.2747 41.3406 58.2747C40.758 58.2747 40.2856 58.7471 40.2856 59.3297V65.6593C40.2856 66.2419 40.758 66.7143 41.3406 66.7143H47.6703C48.2529 66.7143 48.7252 66.2419 48.7252 65.6593C48.7252 65.0767 48.2529 64.6044 47.6703 64.6044H43.8872L50.526 57.9656C50.9382 57.5537 50.9382 56.8859 50.526 56.4739Z" fill="#38472A"/>
<defs>
<filter id="filter0_d_5141_1230" x="0" y="0" width="108" height="108" filterUnits="userSpaceOnUse" color-interpolation-filters="sRGB">
<feFlood flood-opacity="0" result="BackgroundImageFix"/>
<feColorMatrix in="SourceAlpha" type="matrix" values="0 0 0 0 0 0 0 0 0 0 0 0 0 0 0 0 0 0 127 0" result="hardAlpha"/>
<feOffset dy="1"/>
<feGaussianBlur stdDeviation="12"/>
<feComposite in2="hardAlpha" operator="out"/>
<feColorMatrix type="matrix" values="0 0 0 0 0 0 0 0 0 0 0 0 0 0 0 0 0 0 0.32 0"/>
<feBlend mode="normal" in2="BackgroundImageFix" result="effect1_dropShadow_5141_1230"/>
<feBlend mode="normal" in="SourceGraphic" in2="effect1_dropShadow_5141_1230" result="shape"/>
</filter>
</defs>
</svg>
