<svg xmlns="http://www.w3.org/2000/svg" width="16" height="16" viewBox="0 0 16 16" fill="none">
    <g clip-path="url(#clip0_2077_1333)">
    <path d="M4 13.2229L1.75626 15.4667H0.643729L4 12.1104V13.2229ZM0.266663 2.77706L2.5104 0.533325H3.62293L0.266663 3.88959L0.266663 2.77706ZM0.266663 4.64373L4 0.910392V2.02293L0.266663 5.75626V4.64373ZM4 11.3563L0.266663 15.0896V13.9771L4 10.2437V11.3563ZM4 9.48959L0.266663 13.2229V12.1104L4 8.37706V9.48959ZM4 7.62293L0.266663 11.3563V10.2437L4 6.51039V7.62293ZM4 5.75626L0.266663 9.48959V8.37706L4 4.64373V5.75626ZM4 3.88959L0.266663 7.62293V6.51039L4 2.77706V3.88959ZM0.533329 0.533325H1.75626L0.266663 2.02293V0.799992C0.266663 0.652716 0.386053 0.533325 0.533329 0.533325ZM3.73333 15.4667H2.5104L4 13.9771V15.2C4 15.3473 3.88061 15.4667 3.73333 15.4667Z" fill="#484848"></path>
    <path d="M15.4667 0H5.33332C5.18604 0 5.06665 0.119391 5.06665 0.266667C5.06665 0.413943 5.18604 0.533333 5.33332 0.533333H15.4667C15.6139 0.533333 15.7333 0.413943 15.7333 0.266667C15.7333 0.119391 15.6139 0 15.4667 0Z" fill="#484848"></path>
    <path d="M15.4667 15.4667H5.33332C5.18604 15.4667 5.06665 15.5861 5.06665 15.7333C5.06665 15.8806 5.18604 16 5.33332 16H15.4667C15.6139 16 15.7333 15.8806 15.7333 15.7333C15.7333 15.5861 15.6139 15.4667 15.4667 15.4667Z" fill="#484848"></path>
    <path d="M12.2261 12.6586C12.1481 12.5334 11.9833 12.4952 11.8581 12.5733C11.7329 12.6513 11.6947 12.8161 11.7728 12.9413L13.1061 15.0746C13.1547 15.1531 13.2405 15.2008 13.3328 15.2008C13.4251 15.2008 13.5108 15.1531 13.5595 15.0746L14.8928 12.9413C14.9708 12.8161 14.9326 12.6513 14.8075 12.5733C14.6823 12.4952 14.5175 12.5334 14.4395 12.6586L13.6 14.0034V1.99647L14.4405 3.34127C14.491 3.42225 14.5809 3.47014 14.6763 3.46691C14.7716 3.46367 14.858 3.40979 14.9029 3.32557C14.9478 3.24135 14.9443 3.13959 14.8939 3.05861L13.5605 0.925273C13.5086 0.851576 13.424 0.807739 13.3339 0.807739C13.2437 0.807739 13.1591 0.851576 13.1072 0.925273L11.7739 3.05861C11.6958 3.18379 11.734 3.34855 11.8592 3.42661C11.9844 3.50466 12.1491 3.46646 12.2272 3.34127L13.0667 1.99647V14.0034L12.2261 12.6586Z" fill="#484848"></path>
    <path d="M9.86663 5.59998V7.19998H7.7333V5.59998C7.7333 5.30543 7.49452 5.06665 7.19997 5.06665H6.66663C6.37208 5.06665 6.1333 5.30543 6.1333 5.59998V10.4C6.1333 10.6945 6.37208 10.9333 6.66663 10.9333H7.19997C7.49452 10.9333 7.7333 10.6945 7.7333 10.4V8.79998H9.86663V10.4C9.86663 10.6945 10.1054 10.9333 10.4 10.9333H10.9333C11.2279 10.9333 11.4666 10.6945 11.4666 10.4V5.59998C11.4666 5.30543 11.2279 5.06665 10.9333 5.06665H10.4C10.1054 5.06665 9.86663 5.30543 9.86663 5.59998Z" fill="#484848"></path>
    </g>
    <defs>
    <clipPath id="clip0_2077_1333">
        <rect width="16" height="16" fill="white"></rect>
    </clipPath>
    </defs>
</svg>