<svg xmlns="http://www.w3.org/2000/svg" width="228" height="32" viewBox="0 0 228 32" fill="none">
  <g opacity="0.84">
    <path d="M195.455 27.2876L195.501 11.8635H193.749V9.23739H195.501V7.96591C195.501 2.24642 199.138 0 204.481 0C209.825 0 211.979 2.07575 211.979 4.87256C211.979 7.20217 210.408 8.72752 208.387 8.72752C206.367 8.72752 204.75 7.20217 204.75 5.33763C204.75 4.23682 205.243 3.2619 206.098 2.62616C205.874 2.45761 205.514 2.37229 205.155 2.37229C203.494 2.37229 202.91 4.36483 202.91 8.38832V9.23525H205.919V11.8614H202.91V27.2856C202.91 28.3032 203.494 29.3611 204.348 29.9969L204.798 30.2934V31.1831H193.618V30.2934L194.022 29.9969C194.92 29.3611 195.46 28.3032 195.46 27.2856L195.455 27.2876Z" fill="#D9EBE2"/>
    <path d="M180.141 8.77248C185.17 8.77248 190.826 10.4258 190.826 17.0349V27.629C190.826 28.7298 191.185 29.1544 192.083 29.1544C192.083 29.1544 192.756 29.1544 193.116 28.5613C193.116 29.6217 191.499 31.612 188.132 31.612C185.708 31.612 184.002 30.5517 183.507 28.3906C182.026 30.5091 179.601 31.612 176.906 31.612C172.776 31.612 169.589 29.069 169.589 25.2569C169.589 17.4594 182.745 18.3084 183.059 14.7906C182.162 11.9938 179.781 11.0616 178.21 11.0616C177.582 11.0616 177.132 11.1895 176.908 11.3581C177.672 11.9511 178.21 12.8834 178.21 13.9437C178.21 15.7228 176.639 17.2055 174.664 17.2055C172.688 17.2055 171.117 15.7228 171.117 13.773C171.117 10.8503 174.485 8.77248 180.141 8.77248ZM183.375 23.0937V17.9245C181.131 19.4499 177.044 20.1709 177.044 23.8147C177.044 25.933 178.437 27.2471 179.872 27.2471C181.488 27.2471 183.104 25.5938 183.373 23.0958L183.375 23.0937Z" fill="#D9EBE2"/>
    <path d="M158.936 8.77248C165.581 8.77248 168.499 12.205 168.499 16.0599C168.499 20.8473 164.144 24.4505 158.219 24.4505C157.007 24.4505 155.751 24.2819 154.446 23.9854C155.57 26.0612 157.545 27.2471 160.104 27.2471C164.415 27.2471 167.064 23.9001 167.512 22.4174H168.454C167.017 27.9255 163.201 31.612 157.229 31.612C150.674 31.612 145.87 27.2471 145.87 20.5528C145.87 13.5192 151.123 8.77248 158.936 8.77248ZM153.773 22.6286C163.201 20.0856 163.023 11.4413 158.712 11.4413C156.017 11.4413 153.323 14.6626 153.323 19.3646C153.323 20.5507 153.504 21.6536 153.773 22.6263V22.6286Z" fill="#D9EBE2"/>
    <path d="M132.057 1.31449L131.607 1.65369C130.8 2.24677 130.169 3.34756 130.169 4.36518V28.5595H137.263C139.957 28.5595 142.785 27.1621 144.356 25.0842L145.029 24.1519H145.972L145.029 31.1855H120.875V30.2961L121.279 29.9995C122.177 29.3638 122.762 28.3056 122.762 27.288V4.36518C122.762 3.34756 122.179 2.24677 121.279 1.65369L120.875 1.31449V0.46756H132.055V1.31449H132.057Z" fill="#D9EBE2"/>
    <path d="M111.661 30.0013L112.111 30.2979V31.1875H100.931V30.2979L101.335 30.0013C102.233 29.3656 102.818 28.3076 102.818 27.2898V14.4514C102.818 13.4338 102.235 12.333 101.335 11.74L100.931 11.4434V10.5538L108.383 9.23967H110.223V11.0189C111.48 9.62154 113.365 8.77248 115.386 8.77248C119.471 8.77248 121.627 12.1197 119.921 15.0018C119.023 16.3991 117.495 17.0349 115.969 17.0349C115.072 17.0349 114.217 16.8237 113.501 16.4418C112.649 15.9767 111.392 14.9592 111.616 12.4589C110.897 12.5869 110.314 13.2632 110.223 14.748V27.2898C110.223 28.3076 110.852 29.3656 111.661 30.0013Z" fill="#D9EBE2"/>
    <path d="M90.2746 8.77248C96.9203 8.77248 99.8386 12.205 99.8386 16.0599C99.8386 20.8473 95.4827 24.4505 89.5582 24.4505C88.3465 24.4505 87.0897 24.2819 85.7855 23.9854C86.9089 26.0612 88.8845 27.2471 91.4434 27.2471C95.7539 27.2471 98.4032 23.9001 98.8508 22.4174H99.7934C98.358 27.9255 94.5401 31.612 88.5703 31.612C82.015 31.612 77.2117 27.2471 77.2117 20.5528C77.2117 13.5192 82.4648 8.77248 90.277 8.77248H90.2746ZM85.1119 22.6286C94.5401 20.0856 94.3615 11.4413 90.051 11.4413C87.3565 11.4413 84.6621 14.6626 84.6621 19.3646C84.6621 20.5507 84.8429 21.6536 85.1119 22.6263V22.6286Z" fill="#D9EBE2"/>
    <path d="M54.4979 10.4231L54.0933 10.1266V9.237H63.3859V22.4573C63.3859 26.5256 64.0143 28.3049 66.3946 28.3049C70.705 28.3049 73.5781 22.6258 73.4425 14.0242C70.8837 14.3208 68.9532 12.7954 68.9532 10.8882C68.9532 9.23486 70.436 7.8802 72.4547 7.8802C74.2517 7.8802 76.5394 8.94046 76.137 15.3384C75.6442 24.4478 70.5694 31.6093 63.7001 31.6093C58.9848 31.6093 55.9783 28.3049 55.9783 22.8797V13.1346C55.9783 12.117 55.3951 11.0162 54.4955 10.4231H54.4979Z" fill="#D9EBE2"/>
    <path d="M43.7562 8.77248C50.402 8.77248 53.3203 12.205 53.3203 16.0599C53.3203 20.8473 48.9644 24.4505 43.0396 24.4505C41.8282 24.4505 40.5714 24.2819 39.2693 23.9854C40.3927 26.0612 42.366 27.2471 44.9273 27.2471C49.2377 27.2471 51.887 23.9001 52.3346 22.4174H53.2773C51.8396 27.9255 48.0239 31.612 42.0518 31.612C35.4966 31.612 30.6931 27.2471 30.6931 20.5528C30.6931 13.5192 35.9464 8.77248 43.7584 8.77248H43.7562ZM38.5933 22.6286C48.0217 20.0856 47.8431 11.4413 43.5324 11.4413C40.838 11.4413 38.1459 14.6626 38.1459 19.3646C38.1459 20.5507 38.3245 21.6536 38.5957 22.6263L38.5933 22.6286Z" fill="#D9EBE2"/>
    <path d="M27.8803 4.36518V31.1877H25.0072L4.67007 4.19663V27.29C4.67007 28.3076 5.25326 29.3658 6.10769 30.0016L6.51232 30.2981V31.1877H0V30.2981L0.404606 30.0016C1.30201 29.3658 1.88521 28.3076 1.88521 27.29V4.36518C1.88521 3.3049 1.30201 2.20409 0.404606 1.56835L0 1.31449V0.46756H10.9993L25.0976 19.1962V4.36518C25.0976 3.34756 24.5144 2.24677 23.617 1.65369L23.2124 1.31449V0.46756H29.7225V1.31449L29.3631 1.65369C28.4657 2.24677 27.8825 3.34756 27.8825 4.36518H27.8803Z" fill="#D9EBE2"/>
    <path d="M216.11 13.0687C216.11 11.8399 217.276 10.8223 219.342 10.8223C220.643 10.8223 221.855 11.2042 222.215 11.586C221.497 12.0938 221.049 12.9834 221.049 13.9157C221.049 15.569 222.44 16.8809 224.235 16.8809C226.03 16.8809 227.377 15.5668 227.377 13.8303C227.377 11.33 224.414 8.74655 218.532 8.74655C212.651 8.74655 209.014 11.1615 209.014 14.9759C209.014 16.0597 209.335 16.9984 209.869 17.8326C212.269 15.5241 215.088 15.4965 215.208 15.4965H215.54L215.669 15.7844C215.73 15.9253 217.173 19.2489 216.634 22.6943L216.604 22.8863C218.794 24.1323 220.599 25.3162 220.599 26.9227C220.599 28.2795 219.388 29.2522 216.693 29.2522C216.459 29.2586 216.221 29.2501 215.983 29.2266C214.753 29.137 214.024 28.7665 213.627 28.5503C212.228 27.7889 211.186 26.3616 210.915 24.0661C210.854 23.5499 210.861 23.0761 210.915 22.6432C211.053 21.5275 211.514 20.6782 212.018 20.0619C212.775 19.136 213.63 18.7327 213.63 18.7327C213.157 19.3194 212.789 19.8783 212.5 20.4159C212.075 21.2031 211.821 21.9349 211.697 22.6069C211.136 25.6597 213.178 27.4795 213.178 27.4795C213.96 26.9248 214.559 26.2911 215.012 25.6127C215.636 24.672 215.983 23.6437 216.145 22.6197C216.671 19.2619 215.215 15.9573 215.215 15.9573C215.215 15.9573 212.466 15.9422 210.151 18.2272C209.627 18.7434 209.125 19.3792 208.684 20.1579C207.771 21.7663 207.511 24.3072 207.929 25.92C208.609 28.5398 210.415 30.4983 213.806 31.4667C215.012 31.8108 216.422 32 217.988 32C224.093 32 227.742 29.2052 227.742 25.2224C227.742 18.1033 216.114 17.0027 216.114 13.0623L216.11 13.0687Z" fill="#D9EBE2"/>
  </g>
</svg>