<svg xmlns="http://www.w3.org/2000/svg" width="32" height="22" viewBox="0 0 32 22" fill="none">
  <path d="M2.4 4H29.6C30.9258 4 32 3.10482 32 2C32 0.895182 30.9258 0 29.6 0H2.4C1.07422 0 0 0.895182 0 2C0 3.10482 1.07422 4 2.4 4Z" fill="#D9EBE2"/>
  <path d="M29.6 9H2.4C1.07422 9 0 9.89518 0 11C0 12.1048 1.07422 13 2.4 13H29.6C30.9258 13 32 12.1048 32 11C32 9.89518 30.9258 9 29.6 9Z" fill="#D9EBE2"/>
  <path d="M29.6 18H2.4C1.07422 18 0 18.8952 0 20C0 21.1048 1.07422 22 2.4 22H29.6C30.9258 22 32 21.1048 32 20C32 18.8952 30.9258 18 29.6 18Z" fill="#D9EBE2"/>
</svg>