<svg xmlns="http://www.w3.org/2000/svg" width="33" height="32" viewBox="0 0 33 32" fill="none">
  <path d="M18.2503 21.886C19.6841 22.739 20.8808 21.1278 21.8949 20.3672C22.5229 19.8438 23.3091 19.5477 24.1263 19.5268C24.9435 19.5059 25.7439 19.7613 26.3979 20.2518L30.448 23.2894C30.8995 23.6281 31.273 24.0598 31.5432 24.5554C31.8134 25.051 31.9739 25.5988 32.0139 26.1619C32.0539 26.7249 31.9725 27.29 31.7751 27.8188C31.5778 28.3476 31.2691 28.8278 30.8699 29.2269C24.861 35.1275 15.2335 30.7882 8.16089 23.9128C2.78238 18.5341 0.822018 13.3372 0.177676 9.59427C-1.00776 4.90444 3.94915 -3.55876 8.78437 1.62558L11.8218 5.67569C12.3123 6.32966 12.5677 7.13002 12.5468 7.94723C12.5258 8.76444 12.2297 9.55066 11.7064 10.1787L10.3735 11.7781C10.1387 12.0599 9.99515 12.4064 9.96195 12.7717C9.92875 13.137 10.0075 13.5038 10.1876 13.8233C12.0895 17.1959 14.8777 19.9841 18.2503 21.886ZM31.708 12.5075C31.7044 9.28819 30.424 6.20179 28.1476 3.92541C25.8712 1.64902 22.7848 0.368573 19.5655 0.364972C19.4135 0.364491 19.2628 0.394022 19.1222 0.451874C18.9816 0.509726 18.8538 0.594761 18.7461 0.702104C18.6385 0.809446 18.553 0.936986 18.4947 1.07741C18.4364 1.21784 18.4064 1.36839 18.4064 1.52044C18.4064 1.67248 18.4364 1.82303 18.4947 1.96346C18.553 2.10389 18.6385 2.23143 18.7461 2.33877C18.8538 2.44611 18.9816 2.53115 19.1222 2.589C19.2628 2.64685 19.4135 2.67638 19.5655 2.6759C22.1721 2.67889 24.6711 3.71568 26.5142 5.55881C28.3574 7.40194 29.3941 9.90091 29.3971 12.5075C29.4017 12.8109 29.5255 13.1003 29.7417 13.3133C29.9579 13.5262 30.2492 13.6455 30.5526 13.6455C30.856 13.6455 31.1473 13.5262 31.3635 13.3132C31.5797 13.1003 31.7034 12.8109 31.708 12.5075ZM26.012 12.5075C26.0098 10.7985 25.3299 9.16021 24.1214 7.95191C22.9129 6.74361 21.2745 6.064 19.5655 6.06216C19.4135 6.06168 19.2628 6.09121 19.1222 6.14906C18.9816 6.20692 18.8538 6.29195 18.7461 6.39929C18.6384 6.50664 18.553 6.63418 18.4947 6.7746C18.4364 6.91503 18.4064 7.06558 18.4064 7.21763C18.4064 7.36967 18.4364 7.52022 18.4947 7.66065C18.553 7.80108 18.6384 7.92862 18.7461 8.03596C18.8538 8.1433 18.9816 8.22834 19.1222 8.28619C19.2628 8.34404 19.4135 8.37357 19.5655 8.37309C20.6618 8.37413 21.7129 8.81001 22.4882 9.5851C23.2635 10.3602 23.6997 11.4112 23.701 12.5075C23.7056 12.8109 23.8294 13.1003 24.0456 13.3132C24.2618 13.5262 24.553 13.6455 24.8565 13.6455C25.1599 13.6455 25.4512 13.5262 25.6674 13.3132C25.8836 13.1003 26.0074 12.8109 26.012 12.5075ZM19.5658 13.6577C19.8654 13.6474 20.1492 13.5211 20.3574 13.3056C20.5657 13.09 20.6821 12.802 20.6821 12.5023C20.6821 12.2026 20.5657 11.9145 20.3574 11.699C20.1492 11.4834 19.8654 11.3572 19.5658 11.3468C19.2663 11.3572 18.9825 11.4834 18.7742 11.699C18.566 11.9146 18.4496 12.2026 18.4496 12.5023C18.4496 12.802 18.566 13.09 18.7742 13.3056C18.9825 13.5211 19.2663 13.6474 19.5658 13.6577Z" fill="#D9EBE2"/>
</svg>