<svg width="13" height="11" viewBox="0 0 13 11" fill="none" xmlns="http://www.w3.org/2000/svg">
<path d="M1.15166 4.4228H10.0659L7.13315 1.53938C7.0496 1.4579 6.98328 1.36097 6.93802 1.25417C6.89277 1.14737 6.86947 1.03281 6.86947 0.917117C6.86947 0.801419 6.89277 0.686865 6.93802 0.580065C6.98328 0.473265 7.0496 0.376332 7.13315 0.294858C7.30017 0.131623 7.5261 0.0400009 7.76161 0.0400009C7.99711 0.0400009 8.22304 0.131623 8.39006 0.294858L12.2143 4.06347C12.5491 4.39068 12.7382 4.83509 12.7402 5.29922C12.7359 5.76031 12.5469 6.20115 12.2143 6.52621L8.39006 10.2948C8.30695 10.376 8.20839 10.4402 8.10002 10.4839C7.99165 10.5276 7.87558 10.5499 7.75845 10.5495C7.64133 10.5491 7.52542 10.526 7.41737 10.4815C7.30931 10.4371 7.21122 10.3722 7.12869 10.2904C7.04616 10.2087 6.98081 10.1118 6.93637 10.0053C6.89193 9.89873 6.86927 9.78462 6.86968 9.66946C6.8701 9.55431 6.89358 9.44036 6.93878 9.33412C6.98399 9.22789 7.05003 9.13144 7.13315 9.0503L10.0659 6.17564H1.15166C0.915242 6.17564 0.688502 6.08331 0.521327 5.91894C0.354153 5.75458 0.260235 5.53166 0.260235 5.29922C0.260235 5.06678 0.354153 4.84386 0.521327 4.6795C0.688502 4.51514 0.915242 4.4228 1.15166 4.4228Z" fill="white"/>
</svg>
