<svg width="13" height="11" viewBox="0 0 13 11" fill="none" xmlns="http://www.w3.org/2000/svg">
<path d="M11.8483 4.4228H2.93405L5.86685 1.53938C5.9504 1.4579 6.01672 1.36097 6.06198 1.25417C6.10723 1.14737 6.13053 1.03281 6.13053 0.917117C6.13053 0.801419 6.10723 0.686865 6.06198 0.580065C6.01672 0.473265 5.9504 0.376332 5.86685 0.294858C5.69983 0.131623 5.4739 0.0400009 5.23839 0.0400009C5.00289 0.0400009 4.77696 0.131623 4.60994 0.294858L0.785709 4.06347C0.450899 4.39068 0.261756 4.83509 0.259766 5.29922C0.264104 5.76031 0.453067 6.20115 0.785709 6.52621L4.60994 10.2948C4.69305 10.376 4.79161 10.4402 4.89998 10.4839C5.00835 10.5276 5.12442 10.5499 5.24155 10.5495C5.35867 10.5491 5.47458 10.526 5.58263 10.4815C5.69069 10.4371 5.78878 10.3722 5.87131 10.2904C5.95384 10.2087 6.01919 10.1118 6.06363 10.0053C6.10807 9.89873 6.13073 9.78462 6.13032 9.66946C6.1299 9.55431 6.10642 9.44036 6.06122 9.33412C6.01601 9.22789 5.94997 9.13144 5.86685 9.0503L2.93405 6.17564H11.8483C12.0848 6.17564 12.3115 6.08331 12.4787 5.91894C12.6458 5.75458 12.7398 5.53166 12.7398 5.29922C12.7398 5.06678 12.6458 4.84386 12.4787 4.6795C12.3115 4.51514 12.0848 4.4228 11.8483 4.4228Z" fill="#546248"/>
</svg>
