<svg width="16" height="16" viewBox="0 0 16 16" fill="none" xmlns="http://www.w3.org/2000/svg">
<path d="M15.4356 1.2434C15.3997 0.885891 15.1141 0.600337 14.7566 0.562114L9.49522 0.00224851C9.46824 5.15133e-08 9.44126 0 9.41428 0C9.21192 0 9.01855 0.0786958 8.87465 0.222597L0.222597 8.87465C0.0786958 9.01855 0 9.20967 0 9.41428C0 9.61889 0.0786958 9.81001 0.222597 9.95615L6.04609 15.7774C6.34289 16.0742 6.82856 16.0742 7.12535 15.7774L15.7774 7.12535C15.9415 6.96121 16.0225 6.73637 15.9978 6.50478L15.4356 1.2434ZM10.5228 8.7937C10.2754 8.79146 10.0708 8.59809 10.0686 8.35076C10.0618 7.82237 9.86172 7.33671 9.50646 6.9792C9.11523 6.59022 8.57785 6.39236 7.99101 6.42159C7.90557 6.42608 7.82012 6.43508 7.73468 6.45082L8.64306 7.35694C8.81844 7.53232 8.81844 7.81788 8.64306 7.99326C8.55537 8.08095 8.43845 8.12591 8.32378 8.12591C8.20911 8.12591 8.09444 8.08095 8.00675 7.99326L6.81506 6.80157C6.64866 6.905 6.49351 7.02867 6.34963 7.17257C6.20573 7.31647 6.08207 7.47386 5.97864 7.638L7.17032 8.82968C7.3457 9.00506 7.3457 9.28836 7.17032 9.46374C7.08263 9.55368 6.96796 9.5964 6.85329 9.5964C6.73862 9.5964 6.62395 9.55368 6.53626 9.46374L5.62788 8.55537C5.51996 9.20517 5.69309 9.86397 6.15852 10.3294C6.51377 10.6847 6.99944 10.8848 7.52783 10.8893C7.77516 10.8938 7.97527 11.0961 7.97077 11.3457C7.96852 11.5908 7.76841 11.7886 7.52108 11.7886C7.52108 11.7886 7.51883 11.7886 7.51658 11.7886C6.75211 11.7797 6.04384 11.4874 5.5222 10.9635C4.70152 10.145 4.49916 8.92187 4.89488 7.82462V7.82237L4.38898 7.31872C4.2136 7.14334 4.2136 6.85779 4.38898 6.68241C4.56436 6.50703 4.84992 6.50703 5.0253 6.68241L5.33109 6.9882C5.44351 6.8308 5.57167 6.67791 5.71332 6.53626C5.85498 6.3946 6.00562 6.26644 6.16526 6.15177L5.86172 5.84823C5.68409 5.67285 5.68409 5.3873 5.86172 5.21192C6.0371 5.03654 6.32041 5.03654 6.49578 5.21192L6.99944 5.71332C7.30298 5.60315 7.62226 5.54019 7.94604 5.52445C8.78921 5.47948 9.56942 5.77178 10.1428 6.34514C10.6644 6.86676 10.9567 7.57504 10.968 8.33952C10.9702 8.58685 10.7701 8.79146 10.5228 8.7937ZM13.9224 4.11467C13.6414 4.39573 13.2726 4.53513 12.9039 4.53513C12.5351 4.53513 12.1664 4.39573 11.8853 4.11467C11.6133 3.84261 11.4626 3.48061 11.4626 3.09612C11.4626 2.71164 11.6133 2.34963 11.8853 2.07757C12.1574 1.80551 12.5194 1.65486 12.9039 1.65486C13.2884 1.65486 13.6504 1.80551 13.9224 2.07757C14.1945 2.34963 14.3451 2.71164 14.3451 3.09612C14.3451 3.48061 14.1945 3.84261 13.9224 4.11467Z" fill="#38472A"/>
<path d="M13.4456 3.09611C13.4456 3.24001 13.3894 3.37716 13.2859 3.47834C13.0746 3.68968 12.7328 3.68968 12.5215 3.47834C12.418 3.37716 12.3618 3.23999 12.3618 3.09611C12.3618 2.95221 12.418 2.81505 12.5215 2.71387C12.6226 2.61044 12.7598 2.55423 12.9037 2.55423C13.0476 2.55423 13.1848 2.61044 13.2859 2.71387C13.3894 2.81505 13.4456 2.95221 13.4456 3.09611Z" fill="#38472A"/>
</svg>
