<svg width="28" height="16" viewBox="0 0 28 16" fill="none" xmlns="http://www.w3.org/2000/svg">
<path d="M5.88568 12H2.43425L2.29711 12.6971C2.25139 12.9486 2.31996 13.2114 2.47996 13.4057C2.63996 13.6 2.89139 13.7143 3.14282 13.7143H5.75996C5.72568 13.5314 5.71425 13.3371 5.71425 13.1429C5.71425 12.7429 5.77139 12.3657 5.88568 12ZM18.0914 0.32C17.9314 0.114286 17.6914 0 17.4285 0H5.42853C5.01711 0 4.66282 0.297143 4.58282 0.697143L4.50282 1.14286H7.14282C8.23996 1.14286 9.14282 2.04571 9.14282 3.14286C9.14282 3.87429 8.74282 4.50286 8.15996 4.85714C8.74282 5.21143 9.14282 5.84 9.14282 6.57143C9.14282 7.30286 8.74282 7.93143 8.15996 8.28571C8.51425 8.50286 8.79996 8.82286 8.97139 9.21143C9.21139 9.16571 9.46282 9.14286 9.71425 9.14286C11.92 9.14286 13.7142 10.9371 13.7142 13.1429C13.7142 13.3371 13.7028 13.5314 13.6685 13.7143H14.8571C15.2571 13.7143 15.6114 13.4286 15.6914 13.04L18.2628 1.04C18.32 0.788571 18.2628 0.525715 18.0914 0.32Z" fill="#38472A"/>
<path d="M21.9998 3.42856H19.5541C19.1427 3.42856 18.7998 3.71427 18.7084 4.10284L16.8798 12.6743C16.8227 12.9257 16.8798 13.1886 17.0513 13.3943C17.2113 13.6 17.4513 13.7143 17.7141 13.7143H18.3313C18.297 13.5314 18.2855 13.3371 18.2855 13.1428C18.2855 10.9371 20.0798 9.14284 22.2855 9.14284C24.4913 9.14284 26.2855 10.9371 26.2855 13.1428C26.2855 13.2686 26.2855 13.3828 26.2627 13.5086C26.4113 13.3943 26.5141 13.2343 26.5484 13.04L27.4055 9.03999C27.417 8.98284 27.4284 8.91427 27.4284 8.85713C27.4284 5.86284 24.9941 3.42856 21.9998 3.42856Z" fill="#38472A"/>
<path d="M7.14279 3.99999H3.14279C2.66964 3.99999 2.28564 3.61599 2.28564 3.14285C2.28564 2.66971 2.66964 2.28571 3.14279 2.28571H7.14279C7.61593 2.28571 7.99993 2.66971 7.99993 3.14285C7.99993 3.61599 7.61593 3.99999 7.14279 3.99999Z" fill="#38472A"/>
<path d="M7.14307 7.42858H2.00021C1.52707 7.42858 1.14307 7.04458 1.14307 6.57144C1.14307 6.09829 1.52707 5.71429 2.00021 5.71429H7.14307C7.61621 5.71429 8.00021 6.09829 8.00021 6.57144C8.00021 7.04458 7.61621 7.42858 7.14307 7.42858Z" fill="#38472A"/>
<path d="M7.14286 10.8571H0.857143C0.384 10.8571 0 10.4731 0 10C0 9.52685 0.384 9.14285 0.857143 9.14285H7.14286C7.616 9.14285 8 9.52685 8 10C8 10.4731 7.616 10.8571 7.14286 10.8571Z" fill="#38472A"/>
<path d="M22.2859 16C20.711 16 19.4287 14.7188 19.4287 13.1428C19.4287 11.5668 20.711 10.2857 22.2859 10.2857C23.8607 10.2857 25.143 11.5668 25.143 13.1428C25.143 14.7188 23.8607 16 22.2859 16Z" fill="#38472A"/>
<path d="M9.71408 16C8.13922 16 6.85693 14.7188 6.85693 13.1428C6.85693 11.5668 8.13922 10.2857 9.71408 10.2857C11.2889 10.2857 12.5712 11.5668 12.5712 13.1428C12.5712 14.7188 11.2889 16 9.71408 16Z" fill="#38472A"/>
</svg>
