<svg width="98" height="98" viewBox="0 0 98 98" fill="none" xmlns="http://www.w3.org/2000/svg">
<g filter="url(#filter0_d_6607_3613)">
<rect x="24" y="23" width="50" height="50" rx="25" fill="#FBFFFB"/>
</g>
<path d="M60.4284 37.4504V42.7251C60.4284 43.2106 60.0348 43.6043 59.5493 43.6043C59.0638 43.6043 58.6702 43.2106 58.6702 42.7251V39.5726L53.1379 45.1049C52.9662 45.2766 52.7412 45.3625 52.5163 45.3625C52.2915 45.3625 52.0665 45.2766 51.8948 45.1049C51.5513 44.7614 51.5513 44.2051 51.8948 43.8618L57.4271 38.3295H54.2746C53.7891 38.3295 53.3955 37.9359 53.3955 37.4504C53.3955 36.9649 53.7891 36.5713 54.2746 36.5713H59.5493C60.0348 36.5713 60.4284 36.9649 60.4284 37.4504ZM46.1049 43.8618L40.5726 38.3295H43.7251C44.2106 38.3295 44.6043 37.9359 44.6043 37.4504C44.6043 36.9649 44.2106 36.5713 43.7251 36.5713H38.4504C37.9649 36.5713 37.5713 36.9649 37.5713 37.4504V42.7251C37.5713 43.2106 37.9649 43.6043 38.4504 43.6043C38.9359 43.6043 39.3295 43.2106 39.3295 42.7251V39.5726L44.8618 45.1049C45.0335 45.2766 45.2585 45.3625 45.4834 45.3625C45.7082 45.3625 45.9333 45.2766 46.1049 45.1049C46.4484 44.7616 46.4484 44.2051 46.1049 43.8618ZM59.5493 52.3955C59.0638 52.3955 58.6702 52.7891 58.6702 53.2746V56.4271L53.1379 50.8948C52.7944 50.5513 52.2381 50.5513 51.8948 50.8948C51.5515 51.2383 51.5513 51.7946 51.8948 52.1379L57.4271 57.6702H54.2746C53.7891 57.6702 53.3955 58.0638 53.3955 58.5493C53.3955 59.0348 53.7891 59.4284 54.2746 59.4284H59.5493C60.0348 59.4284 60.4284 59.0348 60.4284 58.5493V53.2746C60.4284 52.7891 60.0348 52.3955 59.5493 52.3955ZM46.1049 50.8948C45.7614 50.5513 45.2051 50.5513 44.8618 50.8948L39.3295 56.4271V53.2746C39.3295 52.7891 38.9359 52.3955 38.4504 52.3955C37.9649 52.3955 37.5713 52.7891 37.5713 53.2746V58.5493C37.5713 59.0348 37.9649 59.4284 38.4504 59.4284H43.7251C44.2106 59.4284 44.6043 59.0348 44.6043 58.5493C44.6043 58.0638 44.2106 57.6702 43.7251 57.6702H40.5726L46.1049 52.1379C46.4484 51.7946 46.4484 51.2381 46.1049 50.8948Z" fill="#38472A"/>
<defs>
<filter id="filter0_d_6607_3613" x="0" y="0" width="98" height="98" filterUnits="userSpaceOnUse" color-interpolation-filters="sRGB">
<feFlood flood-opacity="0" result="BackgroundImageFix"/>
<feColorMatrix in="SourceAlpha" type="matrix" values="0 0 0 0 0 0 0 0 0 0 0 0 0 0 0 0 0 0 127 0" result="hardAlpha"/>
<feOffset dy="1"/>
<feGaussianBlur stdDeviation="12"/>
<feComposite in2="hardAlpha" operator="out"/>
<feColorMatrix type="matrix" values="0 0 0 0 0 0 0 0 0 0 0 0 0 0 0 0 0 0 0.32 0"/>
<feBlend mode="normal" in2="BackgroundImageFix" result="effect1_dropShadow_6607_3613"/>
<feBlend mode="normal" in="SourceGraphic" in2="effect1_dropShadow_6607_3613" result="shape"/>
</filter>
</defs>
</svg>
